<?xml version="1.0" encoding="utf-8"?>
<!-- Generator: Adobe Illustrator 17.0.0, SVG Export Plug-In . SVG Version: 6.00 Build 0)  -->
<!DOCTYPE svg PUBLIC "-//W3C//DTD SVG 1.1//EN" "http://www.w3.org/Graphics/SVG/1.1/DTD/svg11.dtd">
<svg version="1.1" id="Layer_1" xmlns="http://www.w3.org/2000/svg" xmlns:xlink="http://www.w3.org/1999/xlink" x="0px" y="0px"
	 width="28px" height="19px" viewBox="0 0 28 19" enable-background="new 0 0 28 19" xml:space="preserve">
<g>
	<g>
		<g>
			<path fill="#505050" d="M23,1V0h-1v1h-1V0h-1v1H7V0H6v1H5V0H4v1H0v18h28V1H23z M13,18H1V7h12V18z M20,18h-6v-5h6V18z M20,12h-6V7
				h6V12z M27,18h-6v-5h6V18z M27,12h-6V7h6V12z M27,6H1V2h3v1h1V2h1v1h1V2h13v1h1V2h1v1h1V2h4V6z M10.731,11.039l-0.99-0.975
				l-3.618,3.564L4.61,12.137l-0.99,0.975l2.503,2.466L10.731,11.039z"/>
		</g>
	</g>
</g>
</svg>
