<?xml version="1.0" encoding="utf-8"?>
<!-- Generator: Adobe Illustrator 17.0.0, SVG Export Plug-In . SVG Version: 6.00 Build 0)  -->
<!DOCTYPE svg PUBLIC "-//W3C//DTD SVG 1.1//EN" "http://www.w3.org/Graphics/SVG/1.1/DTD/svg11.dtd">
<svg version="1.1" id="Layer_1" xmlns="http://www.w3.org/2000/svg" xmlns:xlink="http://www.w3.org/1999/xlink" x="0px" y="0px"
	 width="22px" height="23px" viewBox="0 0 22 23" enable-background="new 0 0 22 23" xml:space="preserve">
<g>
	<g>
		<g>
			<path fill="#505050" d="M21,15l-1-3l-1-3V6h-3V0H6v6H3v3l-1,3l-1,3l-1,3v5h22v-5L21,15z M7,1h8v5H7V1z M21,22H1v-4l1-3l1-3l1-3V7
				h2v4H5v1h1v1h1v-1h1v-1H7V7h8v4h-1v1h1v1h1v-1h1v-1h-1V7h2v2l1,3l1,3l1,3V22z M5,18h12v-1H5V18z"/>
		</g>
	</g>
</g>
</svg>
