<?xml version="1.0" encoding="utf-8"?>
<!-- Generator: Adobe Illustrator 17.0.0, SVG Export Plug-In . SVG Version: 6.00 Build 0)  -->
<!DOCTYPE svg PUBLIC "-//W3C//DTD SVG 1.1//EN" "http://www.w3.org/Graphics/SVG/1.1/DTD/svg11.dtd">
<svg version="1.1" id="Layer_1" xmlns="http://www.w3.org/2000/svg" xmlns:xlink="http://www.w3.org/1999/xlink" x="0px" y="0px"
	 width="28.007px" height="22.008px" viewBox="0 0 28.007 22.008" enable-background="new 0 0 28.007 22.008" xml:space="preserve">
<g>
	<path fill="#505050" d="M18.006,4V0h-8v4h-10L0,22.008h3.851h20.305h3.851L28.006,4H18.006z M11.006,1h6v3h-6V1z M23.006,5v7h-5v-2
		h-8v2h-5V5H23.006z M17.006,11v3h-6v-3H17.006z M1.006,21V5h3v16H1.006z M5.006,21v-8h5v2h8v-2h5v8H5.006z M27.006,21h-3V5h3V21z"
		/>
</g>
</svg>
