<?xml version="1.0" encoding="utf-8"?>
<!-- Generator: Adobe Illustrator 17.0.0, SVG Export Plug-In . SVG Version: 6.00 Build 0)  -->
<!DOCTYPE svg PUBLIC "-//W3C//DTD SVG 1.1//EN" "http://www.w3.org/Graphics/SVG/1.1/DTD/svg11.dtd">
<svg version="1.1" id="Layer_1" xmlns="http://www.w3.org/2000/svg" xmlns:xlink="http://www.w3.org/1999/xlink" x="0px" y="0px"
	 width="15px" height="25.001px" viewBox="0 0 15 25.001" enable-background="new 0 0 15 25.001" xml:space="preserve">
<g>
	<g>
		<g>
			<path fill="#505050" d="M8.064,1.089L7.5,0L6.935,1.089C6.652,1.636,0,14.508,0,18.09c0,3.81,3.364,6.911,7.5,6.911
				c4.135,0,7.5-3.1,7.5-6.911C15,14.508,8.348,1.636,8.064,1.089z M7.5,23.77c-3.438,0-6.235-2.548-6.235-5.68
				C1.265,15.6,5.346,7.009,7.5,2.748C9.653,7.009,13.735,15.6,13.735,18.09C13.735,21.222,10.938,23.77,7.5,23.77z M10.871,17.82
				c0,1.693-1.461,3.091-3.358,3.091v1.231c2.53,0,4.623-1.86,4.623-4.322H10.871z"/>
		</g>
	</g>
</g>
</svg>
