<?xml version="1.0" encoding="utf-8"?>
<!-- Generator: Adobe Illustrator 17.0.0, SVG Export Plug-In . SVG Version: 6.00 Build 0)  -->
<!DOCTYPE svg PUBLIC "-//W3C//DTD SVG 1.1//EN" "http://www.w3.org/Graphics/SVG/1.1/DTD/svg11.dtd">
<svg version="1.1" id="Layer_1" xmlns="http://www.w3.org/2000/svg" xmlns:xlink="http://www.w3.org/1999/xlink" x="0px" y="0px"
	 width="32.75px" height="32.994px" viewBox="0 0 32.75 32.994" enable-background="new 0 0 32.75 32.994" xml:space="preserve">
<g>
	<g>
		<g>
			<path fill="#505050" d="M23.669,30.994l2.499-2.5l-3.248-3.249l1.357-2.858l3.292,3.087l1.367-1.459L25.5,20.793
				c1.204-0.78,2.003-2.133,2.003-3.671c0-2.412-1.962-4.374-4.373-4.374c-2.411,0-4.372,1.962-4.372,4.374
				c0,0.671,0.156,1.375,0.428,1.875H14.26v2h3.084l-2.901,4.402l3.373,3.124l-2.139,2.14l0.332,0.332H15.75
				c-7.582,0-13.751-6.167-13.751-13.747c0-1.945,0.397-5.324,1.181-7.084c1.271-2.857,3.505-5.218,6.29-6.649
				C11.424,2.509,13.536,2,15.75,2h6.756V1.211L22.53,2c0.037-0.001,1.042-0.002,1.946,0.892c0.824,0.816,1.327,2.16,1.479,3.924
				l-2.393-1.278l-2.653,2.37l-2.797-2.5l-2.8,2.5l-2.134-1.905l-1.331,1.492l3.465,3.094l2.799-2.499l2.798,2.5l2.944-2.629
				l3.166,1.691l0.881-1.652h0.104c0-2.976-0.731-5.189-2.173-6.579c-1.445-1.393-3.05-1.426-3.332-1.42H15.75
				c-2.499,0-4.986,0.6-7.193,1.734C5.368,3.373,2.81,6.078,1.354,9.349C0.456,11.367,0,15.02,0,17.247
				c0,8.683,7.065,15.747,15.75,15.747h17v-1.999H23.669z M23.13,14.748c1.309,0,2.374,1.065,2.374,2.375
				c0,1.309-1.065,2.374-2.374,2.374c-0.42,0-0.814-0.111-1.157-0.303l0.197-0.197h-0.491c-0.56-0.5-0.922-1.112-0.922-1.875
				C20.757,15.813,21.822,14.748,23.13,14.748z M20.843,30.994h-2.67l2.526-2.527l-3.373-3.124l3.209-4.709
				c0.542,0.402,1.179,0.681,1.872,0.798l-2.314,3.814l3.248,3.249L20.843,30.994z M10.194,14.04
				c0.773-0.787,1.701-1.362,2.757-1.711l-0.628-1.899c-1.341,0.443-2.57,1.207-3.554,2.208c-1.421,1.446-2.314,4.851-2.516,6.866
				c-0.124,1.243,0.013,2.48,0.408,3.675l1.898-0.627c-0.306-0.928-0.413-1.886-0.317-2.849C8.398,18.14,9.092,15.162,10.194,14.04z
				"/>
		</g>
	</g>
</g>
</svg>
