<?xml version="1.0" encoding="utf-8"?>
<!-- Generator: Adobe Illustrator 17.0.0, SVG Export Plug-In . SVG Version: 6.00 Build 0)  -->
<!DOCTYPE svg PUBLIC "-//W3C//DTD SVG 1.1//EN" "http://www.w3.org/Graphics/SVG/1.1/DTD/svg11.dtd">
<svg version="1.1" id="Layer_1" xmlns="http://www.w3.org/2000/svg" xmlns:xlink="http://www.w3.org/1999/xlink" x="0px" y="0px"
	 width="26.75px" height="40px" viewBox="0 0 26.75 40" enable-background="new 0 0 26.75 40" xml:space="preserve">
<g>
	<g>
		<g>
			<path fill="#505050" d="M19.084,11.978L15.75,0h-9L3.424,11.959l0.029,0.009C1.326,14.017,0,16.891,0,20.071
				c0,3.185,1.331,6.064,3.464,8.114L6.75,40h9l3.282-11.81c2.135-2.05,3.469-4.931,3.469-8.119c0-3.172-1.32-6.04-3.436-8.088
				L19.084,11.978z M8.75,2h5l2.728,8.106c-1.563-0.824-3.341-1.294-5.227-1.294c-1.861,0-3.617,0.457-5.165,1.261L8.75,2z
				 M13.75,38h-5l-2.68-7.94c1.552,0.809,3.313,1.27,5.181,1.27c1.841,0,3.578-0.447,5.113-1.235L13.75,38z M20.503,20.071
				c0,5.105-4.15,9.258-9.252,9.258c-5.102,0-9.252-4.153-9.252-9.258c0-5.105,4.15-9.258,9.252-9.258
				C16.352,10.812,20.503,14.966,20.503,20.071z M8.321,15.3L6.894,16.7l4.196,4.3h4.66v-2H11.93L8.321,15.3z M24.75,17v6h2v-6
				H24.75z"/>
		</g>
	</g>
</g>
</svg>
