<?xml version="1.0" encoding="utf-8"?>
<!-- Generator: Adobe Illustrator 17.0.0, SVG Export Plug-In . SVG Version: 6.00 Build 0)  -->
<!DOCTYPE svg PUBLIC "-//W3C//DTD SVG 1.1//EN" "http://www.w3.org/Graphics/SVG/1.1/DTD/svg11.dtd">
<svg version="1.1" id="Layer_1" xmlns="http://www.w3.org/2000/svg" xmlns:xlink="http://www.w3.org/1999/xlink" x="0px" y="0px"
	 width="26px" height="20.999px" viewBox="0 0 26 20.999" enable-background="new 0 0 26 20.999" xml:space="preserve">
<g>
	<g>
		<g>
			<path fill="#505050" d="M26,14.318c0-1.417-1.173-2.57-2.615-2.57c-1.442,0-2.615,1.153-2.615,2.57
				c0,0.995,0.579,1.857,1.422,2.284l-0.974,0.74v3.657h1.195v-3.081l1.046-0.795l1.046,0.795v3.081h1.195v-3.657l-1.034-0.787
				C25.461,16.114,26,15.277,26,14.318z M23.546,15.703l-0.019-0.014l-0.014,0.018c-0.034,0.003-0.068,0.004-0.102,0.005
				l-0.018-0.023l-0.03,0.023c-0.772-0.012-1.397-0.632-1.397-1.394c0-0.769,0.637-1.395,1.42-1.395c0.783,0,1.42,0.626,1.42,1.395
				C24.805,15.033,24.253,15.624,23.546,15.703z M16.979,5.102c0.665-0.466,1.101-1.229,1.101-2.091c0-1.417-1.173-2.57-2.615-2.57
				s-2.615,1.153-2.615,2.57c0,0.857,0.431,1.616,1.09,2.083l-0.558,0.324L11.3,4.552c0.581-0.472,0.952-1.185,0.952-1.982
				C12.253,1.153,11.08,0,9.638,0C8.196,0,7.023,1.153,7.023,2.57c0,0.774,0.352,1.468,0.905,1.94L5.126,5.675l2.047,8.2v7.124
				h1.195v-7.266L6.529,6.367l2.968-1.234C9.544,5.135,9.591,5.14,9.638,5.14c0.008,0,0.016-0.001,0.025-0.001
				c0.022,0.013,0.044,0.027,0.069,0.037l2.397,0.997c0.27,0.112,0.418,0.401,0.348,0.681l-1.7,6.811
				c-0.011,0.046-0.017,0.093-0.017,0.14v7.195h1.195v-6.608h1.112l0.647,6.608h1.201l-0.761-7.783h-2.034l1.518-6.08l0.201-0.727
				l1.529-0.805l1.608,0.819l1.825,6.794h-1.679l-1.218,7.783h1.209l1.035-6.608h2.177l-2.327-8.772L16.979,5.102z M9.638,3.965
				c-0.04,0-0.079-0.003-0.117-0.006L9.48,3.864L9.324,3.929C8.692,3.788,8.218,3.233,8.218,2.57c0-0.769,0.637-1.395,1.42-1.395
				c0.783,0,1.419,0.626,1.419,1.395C11.057,3.339,10.421,3.965,9.638,3.965z M15.466,4.405c-0.058,0-0.115-0.005-0.172-0.011
				l-0.036-0.066l-0.082,0.048c-0.644-0.132-1.13-0.694-1.13-1.365c0-0.769,0.637-1.395,1.419-1.395s1.419,0.626,1.419,1.395
				C16.885,3.78,16.248,4.405,15.466,4.405z M5.23,11.528c0-1.417-1.173-2.57-2.615-2.57C1.173,8.958,0,10.11,0,11.528
				c0,0.995,0.579,1.857,1.422,2.284l-0.974,0.74v6.447h1.195v-5.871l1.046-0.795l1.046,0.795v5.871h1.195v-6.447l-1.035-0.787
				C4.691,13.324,5.23,12.487,5.23,11.528z M2.776,12.913l-0.019-0.014l-0.014,0.018c-0.034,0.003-0.068,0.004-0.102,0.005
				l-0.018-0.023l-0.03,0.023c-0.772-0.012-1.397-0.632-1.397-1.394c0-0.769,0.637-1.395,1.42-1.395c0.783,0,1.42,0.626,1.42,1.395
				C4.034,12.243,3.483,12.834,2.776,12.913z"/>
		</g>
	</g>
</g>
</svg>
