<?xml version="1.0" encoding="utf-8"?>
<!-- Generator: Adobe Illustrator 17.0.0, SVG Export Plug-In . SVG Version: 6.00 Build 0)  -->
<!DOCTYPE svg PUBLIC "-//W3C//DTD SVG 1.1//EN" "http://www.w3.org/Graphics/SVG/1.1/DTD/svg11.dtd">
<svg version="1.1" id="Layer_1" xmlns="http://www.w3.org/2000/svg" xmlns:xlink="http://www.w3.org/1999/xlink" x="0px" y="0px"
	 width="25.011px" height="24.683px" viewBox="0 0 25.011 24.683" enable-background="new 0 0 25.011 24.683" xml:space="preserve">
<g>
	<g>
		<g>
			<path fill="#505050" d="M24.798,10.796l0.13-0.272L19.368,7.9h-0.685l0.992-1.463l-4.529-1.205
				c0.211-0.385,0.33-0.826,0.33-1.294c0-1.499-1.227-2.719-2.736-2.719s-2.736,1.22-2.736,2.719c0,0.469,0.12,0.911,0.331,1.296
				L7.289,7.589H6.268l-6.224,2.935l0.113,0.238L0,10.664v10.634l5.448,3.385h14.115l5.448-3.385V10.664L24.798,10.796z
				 M12.74,2.461c0.819,0,1.485,0.662,1.485,1.476c0,0.814-0.666,1.476-1.485,1.476c-0.819,0-1.485-0.662-1.485-1.476
				C11.255,3.124,11.921,2.461,12.74,2.461z M5.002,22.94L1.25,20.609v-7.702l3.752,2.331V22.94z M18.759,23.439H6.253v-7.925
				h12.506V23.439z M23.761,20.609l-3.752,2.331v-7.702l3.752-2.331V20.609z M19.204,14.271H5.807l-4.656-2.893L6.55,8.833h0.503
				l0.717,2.139l1.186-0.393l-0.72-2.147l1.661-1.284l0.9,4.601l1.228-0.237l-1.081-5.527c0.481,0.418,1.108,0.673,1.796,0.673
				c0.67,0,1.284-0.242,1.761-0.641l-1.047,5.498l1.229,0.231l0.969-5.091l2.006,0.534l-1.326,1.956h2.754l4.758,2.246
				L19.204,14.271z M3.094,4.785C3.372,5.22,3.555,5.508,2.682,7.012l1.083,0.622c1.163-2.002,0.893-2.72,0.386-3.515
				c-0.113-0.177-0.21-0.33-0.269-0.524C3.727,3.077,4.296,2.843,4.474,2.784L4.09,1.601C3.316,1.846,2.302,2.673,2.683,3.949
				C2.79,4.309,2.959,4.573,3.094,4.785z M6.349,5.879l0.705-1.027C5.998,4.114,6.657,3.022,6.8,2.811
				c0.595-0.88,0.746-1.575,0.463-2.123C6.929,0.043,6.181,0.002,6.096,0L6.059,1.243c0.003,0,0.056,0.01,0.089,0.024
				c0.001,0.068-0.027,0.319-0.386,0.851c-0.798,1.181-0.595,2.15-0.285,2.754C5.798,5.496,6.294,5.841,6.349,5.879z"/>
		</g>
	</g>
</g>
</svg>
