<?xml version="1.0" encoding="utf-8"?>
<!-- Generator: Adobe Illustrator 17.0.0, SVG Export Plug-In . SVG Version: 6.00 Build 0)  -->
<!DOCTYPE svg PUBLIC "-//W3C//DTD SVG 1.1//EN" "http://www.w3.org/Graphics/SVG/1.1/DTD/svg11.dtd">
<svg version="1.1" id="Layer_1" xmlns="http://www.w3.org/2000/svg" xmlns:xlink="http://www.w3.org/1999/xlink" x="0px" y="0px"
	 width="27.331px" height="31.196px" viewBox="0 0 27.331 31.196" enable-background="new 0 0 27.331 31.196" xml:space="preserve">
<g>
	<g>
		<g>
			<path fill="#555555" d="M14.52,3.674V0h-1.708v3.674C5.673,4.12,0,10.113,0,17.42c0,7.596,6.13,13.776,13.666,13.776
				c7.535,0,13.666-6.18,13.666-13.776C27.331,10.113,21.658,4.12,14.52,3.674z M13.666,29.474c-6.593,0-11.957-5.407-11.957-12.054
				c0-6.646,5.364-12.054,11.957-12.054c6.594,0,11.958,5.407,11.958,12.054C25.623,24.067,20.259,29.474,13.666,29.474z
				 M16.152,14.841l-2.558-6.969l-2.558,6.969L4.124,17.42l6.913,2.579l2.558,6.969l2.558-6.969l6.913-2.579L16.152,14.841z
				 M9.505,12.311L6.479,9.26c-0.423,0.386-0.813,0.807-1.17,1.256l3.05,3.074C8.682,13.113,9.069,12.683,9.505,12.311z
				 M22.005,10.605c-0.352-0.453-0.739-0.878-1.158-1.268l-3.023,3.048c0.43,0.38,0.809,0.817,1.125,1.301L22.005,10.605z
				 M17.223,22.526l3.05,3.074c0.445-0.36,0.863-0.753,1.246-1.179l-3.027-3.051C18.123,21.81,17.696,22.2,17.223,22.526z
				 M8.826,21.456l-3.024,3.048c0.387,0.422,0.808,0.812,1.258,1.167l3.056-3.081C9.636,22.271,9.203,21.889,8.826,21.456z"/>
		</g>
	</g>
</g>
</svg>
