<?xml version="1.0" encoding="utf-8"?>
<!-- Generator: Adobe Illustrator 17.0.0, SVG Export Plug-In . SVG Version: 6.00 Build 0)  -->
<!DOCTYPE svg PUBLIC "-//W3C//DTD SVG 1.1//EN" "http://www.w3.org/Graphics/SVG/1.1/DTD/svg11.dtd">
<svg version="1.1" id="Layer_1" xmlns="http://www.w3.org/2000/svg" xmlns:xlink="http://www.w3.org/1999/xlink" x="0px" y="0px"
	 width="23.386px" height="23.02px" viewBox="0 0 23.386 23.02" enable-background="new 0 0 23.386 23.02" xml:space="preserve">
<g>
	<g>
		<path fill="#555555" d="M18.992,9.376l-5.948,6.009l1.207,1.219l5.948-6.008L18.992,9.376z M20.516,2.904
			C18.663,1.031,16.198,0,13.577,0c-2.621,0-5.086,1.031-6.939,2.904C3.276,6.3,2.869,11.566,5.414,15.417L0,20.886l2.112,2.134
			l5.321-5.376c1.737,1.414,3.881,2.183,6.143,2.183c2.621,0,5.086-1.031,6.939-2.904C24.342,13.058,24.342,6.769,20.516,2.904z
			 M19.309,15.705c-1.531,1.547-3.567,2.398-5.732,2.398c-2.166,0-4.201-0.852-5.733-2.398c-3.161-3.193-3.161-8.389,0-11.582
			c1.531-1.547,3.567-2.399,5.733-2.399c2.165,0,4.201,0.852,5.732,2.399C22.47,7.316,22.47,12.512,19.309,15.705z"/>
	</g>
</g>
</svg>
