<?xml version="1.0" encoding="utf-8"?>
<!-- Generator: Adobe Illustrator 17.0.0, SVG Export Plug-In . SVG Version: 6.00 Build 0)  -->
<!DOCTYPE svg PUBLIC "-//W3C//DTD SVG 1.1//EN" "http://www.w3.org/Graphics/SVG/1.1/DTD/svg11.dtd">
<svg version="1.1" id="Layer_1" xmlns="http://www.w3.org/2000/svg" xmlns:xlink="http://www.w3.org/1999/xlink" x="0px" y="0px"
	 width="26.574px" height="23.285px" viewBox="0 0 26.574 23.285" enable-background="new 0 0 26.574 23.285" xml:space="preserve">
<g>
	<path fill="#505050" d="M24.822,7.023c-0.415-0.6-1.299-0.983-2.342-0.983c-1.011,0-1.88,0.365-2.309,0.938
		c-1.169,0.181-1.984,0.868-1.984,1.713c0,0.395,0.177,0.765,0.512,1.069l0.18,0.163h1.569l-1.725,1.709H17.24l-1.7-1.398h1.618
		c0.095-0.097,0.149-0.203,0.149-0.316c0-0.402-0.674-0.732-1.541-0.776c-0.168-0.353-0.865-0.617-1.7-0.617
		c-0.846,0-1.55,0.271-1.707,0.631C11.581,9.235,11,9.547,11,9.919c0,0.112,0.054,0.219,0.149,0.316h2.618l1.902,1.886l-2.266,0.704
		L8.314,10.11l2.54-2.517h3.057l2.352-2.33h5.27l0.174-0.342c0.158-0.311,0.313-0.649,0.313-1.056c0-1.106-1.057-2.038-2.611-2.341
		C18.862,0.61,17.514,0,15.954,0c-1.547,0-2.856,0.564-3.419,1.438c-1.71,0.227-2.96,1.232-2.96,2.431
		c0,0.403,0.148,0.727,0.312,1.051l0.174,0.342h4.427L13.392,6.35h-3.057L7.29,9.368L5.024,6.816H8.03
		c0.229-0.208,0.363-0.454,0.363-0.719c0-0.639-0.773-1.173-1.808-1.307C6.377,4.175,5.44,3.709,4.314,3.709
		c-1.111,0-2.039,0.454-2.263,1.058C0.897,4.843,0,5.41,0,6.098c0,0.265,0.134,0.511,0.363,0.719h2.99l3.474,3.912l5.883,3.14v6.649
		c-1.708,0.138-3.286,0.777-4.502,1.834l0.827,0.934c1.153-1.002,2.709-1.554,4.381-1.554c1.666,0,3.217,0.549,4.369,1.545
		l0.825-0.936c-1.251-1.082-2.884-1.722-4.645-1.832v-6.554l3.467-1.078h1.81l2.979-2.952h3.661l0.18-0.163
		c0.335-0.304,0.512-0.674,0.512-1.069C26.574,7.913,25.869,7.256,24.822,7.023z M10.83,3.869c0-0.513,0.919-1.146,2.149-1.227
		l0.407-0.027l0.14-0.379c0.181-0.488,1.139-0.994,2.428-0.994c1.287,0,2.265,0.539,2.433,1.038l0.125,0.369L18.901,2.7
		c1.151,0.149,1.864,0.721,1.864,1.165c0,0.046-0.008,0.095-0.027,0.155h-9.882C10.837,3.961,10.83,3.914,10.83,3.869z
		 M19.441,8.681c0.021-0.133,0.425-0.452,1.157-0.5l0.407-0.027l0.14-0.379c0.062-0.166,0.53-0.492,1.335-0.492
		c0.778,0,1.276,0.318,1.336,0.495l0.124,0.369l0.389,0.05c0.663,0.086,0.97,0.374,0.99,0.484H19.441z"/>
</g>
</svg>
