<?xml version="1.0" encoding="utf-8"?>
<!-- Generator: Adobe Illustrator 17.0.0, SVG Export Plug-In . SVG Version: 6.00 Build 0)  -->
<!DOCTYPE svg PUBLIC "-//W3C//DTD SVG 1.1//EN" "http://www.w3.org/Graphics/SVG/1.1/DTD/svg11.dtd">
<svg version="1.1" id="Layer_1" xmlns="http://www.w3.org/2000/svg" xmlns:xlink="http://www.w3.org/1999/xlink" x="0px" y="0px"
	 width="19.002px" height="28.986px" viewBox="0 0 19.002 28.986" enable-background="new 0 0 19.002 28.986" xml:space="preserve">
<g>
	<g>
		<g>
			<path fill="#505050" d="M13.556,8.68L11.188,0H4.795L2.432,8.666l0.021,0.006C0.942,10.157,0,12.24,0,14.544
				c0,2.308,0.946,4.394,2.46,5.88l2.335,8.562h6.393l2.331-8.558c1.517-1.486,2.464-3.573,2.464-5.883
				c0-2.299-0.937-4.377-2.441-5.861L13.556,8.68z M6.216,1.449h3.552l1.938,5.874c-1.11-0.597-2.373-0.937-3.713-0.937
				c-1.322,0-2.569,0.331-3.669,0.914L6.216,1.449z M9.767,27.537H6.216l-1.904-5.754c1.102,0.586,2.353,0.92,3.68,0.92
				c1.307,0,2.541-0.324,3.632-0.895L9.767,27.537z M14.564,14.544c0,3.699-2.948,6.709-6.572,6.709
				c-3.624,0-6.572-3.01-6.572-6.709c0-3.699,2.948-6.709,6.572-6.709C11.616,7.835,14.564,10.845,14.564,14.544z M5.911,11.087
				l-1.013,1.015l2.981,3.116h3.31v-1.449H8.474L5.911,11.087z M17.581,12.319v4.348h1.421v-4.348H17.581z"/>
		</g>
	</g>
</g>
</svg>
