<?xml version="1.0" encoding="utf-8"?>
<!-- Generator: Adobe Illustrator 17.0.0, SVG Export Plug-In . SVG Version: 6.00 Build 0)  -->
<!DOCTYPE svg PUBLIC "-//W3C//DTD SVG 1.1//EN" "http://www.w3.org/Graphics/SVG/1.1/DTD/svg11.dtd">
<svg version="1.1" id="Layer_1" xmlns="http://www.w3.org/2000/svg" xmlns:xlink="http://www.w3.org/1999/xlink" x="0px" y="0px"
	 width="25.623px" height="34.853px" viewBox="0 0 25.623 34.853" enable-background="new 0 0 25.623 34.853" xml:space="preserve">
<g>
	<g>
		<g>
			<path fill="#505050" d="M12.812,0C5.747,0,0,5.791,0,12.91c0,6.895,11.668,20.608,12.165,21.188l0.647,0.756l0.647-0.756
				c0.497-0.58,12.165-14.293,12.165-21.188C25.623,5.791,19.876,0,12.812,0z M12.811,32.198
				C10.349,29.203,1.708,18.307,1.708,12.91c0-6.169,4.981-11.188,11.103-11.188c6.122,0,11.103,5.019,11.103,11.188
				C23.915,18.304,15.274,29.202,12.811,32.198z M12.812,7.523c-2.83,0-5.132,2.32-5.132,5.171c0,2.851,2.302,5.171,5.132,5.171
				c2.83,0,5.132-2.32,5.132-5.171C17.943,9.843,15.641,7.523,12.812,7.523z M12.812,16.144c-1.888,0-3.424-1.548-3.424-3.45
				c0-1.902,1.536-3.45,3.424-3.45c1.888,0,3.424,1.548,3.424,3.45C16.235,14.597,14.699,16.144,12.812,16.144z"/>
		</g>
	</g>
</g>
</svg>
