<?xml version="1.0" encoding="utf-8"?>
<!-- Generator: Adobe Illustrator 17.0.0, SVG Export Plug-In . SVG Version: 6.00 Build 0)  -->
<!DOCTYPE svg PUBLIC "-//W3C//DTD SVG 1.1//EN" "http://www.w3.org/Graphics/SVG/1.1/DTD/svg11.dtd">
<svg version="1.1" id="Layer_1" xmlns="http://www.w3.org/2000/svg" xmlns:xlink="http://www.w3.org/1999/xlink" x="0px" y="0px"
	 width="34.164px" height="27.969px" viewBox="0 0 34.164 27.969" enable-background="new 0 0 34.164 27.969" xml:space="preserve">
<g>
	<g>
		<g>
			<path fill="#505050" d="M10.463,4.948V0H0v27.969h34.164V4.948H10.463z M1.708,1.721h7.046v3.227H1.708V1.721z M32.456,26.248
				H1.708V6.669h30.748V26.248z M17.082,23.089c3.654,0,6.627-2.995,6.627-6.677c0-3.682-2.973-6.677-6.627-6.677
				c-3.654,0-6.627,2.995-6.627,6.677C10.455,20.094,13.428,23.089,17.082,23.089z M22,16.412c0,2.732-2.206,4.956-4.918,4.956
				c-1.553,0-2.939-0.73-3.841-1.866l6.908-6.96C21.276,13.451,22,14.847,22,16.412z M12.164,16.412
				c0-2.732,2.206-4.956,4.918-4.956c0.521,0,1.023,0.083,1.495,0.235l-6.18,6.227C12.246,17.443,12.164,16.937,12.164,16.412z
				 M30.748,8.821h-6.192v1.721h6.192V8.821z"/>
		</g>
	</g>
</g>
</svg>
