<?xml version="1.0" encoding="utf-8"?>
<!-- Generator: Adobe Illustrator 17.0.0, SVG Export Plug-In . SVG Version: 6.00 Build 0)  -->
<!DOCTYPE svg PUBLIC "-//W3C//DTD SVG 1.1//EN" "http://www.w3.org/Graphics/SVG/1.1/DTD/svg11.dtd">
<svg version="1.1" id="Layer_1" xmlns="http://www.w3.org/2000/svg" xmlns:xlink="http://www.w3.org/1999/xlink" x="0px" y="0px"
	 width="34.591px" height="34.853px" viewBox="0 0 34.591 34.853" enable-background="new 0 0 34.591 34.853" xml:space="preserve">
<g>
	<g>
		<g>
			<path fill="#505050" d="M25.877,9.998l4.253-4.285l-1.208-1.217L24.669,8.78c-2.053-1.783-4.641-2.758-7.379-2.758
				c-3.025,0-5.869,1.187-8.007,3.342C5.071,13.608,4.88,20.388,8.704,24.866l-4.242,4.275l1.208,1.217l4.242-4.274
				c2.053,1.783,4.641,2.758,7.379,2.758c3.025,0,5.868-1.187,8.007-3.342C29.51,21.256,29.7,14.475,25.877,9.998z M10.491,10.581
				c1.816-1.83,4.231-2.838,6.8-2.838c2.281,0,4.441,0.797,6.168,2.257L9.915,23.646C6.755,19.843,6.945,14.153,10.491,10.581z
				 M24.09,24.283c-1.816,1.83-4.231,2.838-6.799,2.838c-2.282,0-4.441-0.797-6.168-2.257l13.543-13.646
				C27.826,15.02,27.635,20.71,24.09,24.283z M18.15,4.55V0h-1.708v4.55C17.082,4.512,17.509,4.512,18.15,4.55z M26.355,26.555
				c-0.203,0.205-0.413,0.398-0.626,0.586l3.193,3.217l1.208-1.217l-3.193-3.217C26.75,26.138,26.558,26.35,26.355,26.555z
				 M8.236,8.299C8.44,8.094,8.65,7.901,8.863,7.713L5.67,4.496L4.462,5.713L7.655,8.93C7.841,8.715,8.033,8.504,8.236,8.299z
				 M30.075,16.566c0.038,0.645,0.038,1.076,0,1.721h4.516v-1.721H30.075z M16.441,30.303v4.55h1.708v-4.55
				C17.509,30.341,17.082,30.341,16.441,30.303z M4.516,16.566H0v1.721h4.516C4.478,17.642,4.478,17.212,4.516,16.566z"/>
		</g>
	</g>
</g>
</svg>
