<?xml version="1.0" encoding="utf-8"?>
<!-- Generator: Adobe Illustrator 17.0.0, SVG Export Plug-In . SVG Version: 6.00 Build 0)  -->
<!DOCTYPE svg PUBLIC "-//W3C//DTD SVG 1.1//EN" "http://www.w3.org/Graphics/SVG/1.1/DTD/svg11.dtd">
<svg version="1.1" id="Layer_1" xmlns="http://www.w3.org/2000/svg" xmlns:xlink="http://www.w3.org/1999/xlink" x="0px" y="0px"
	 width="21.358px" height="16.868px" viewBox="0 0 21.358 16.868" enable-background="new 0 0 21.358 16.868" xml:space="preserve">
<g>
	<path fill="#505050" d="M21.358,1.997L21.358,1.997L21.358,1.997 M14.787,0c-2.42,0-4.382,1.906-4.382,4.258
		c0,0.334,0.039,0.659,0.113,0.971c-3.642-0.178-6.871-1.873-9.032-4.45C1.11,1.408,0.894,2.14,0.894,2.92
		c0,1.477,0.774,2.781,1.949,3.545C2.125,6.443,1.449,6.251,0.858,5.932c0,0.018,0,0.036,0,0.054c0,2.063,1.51,3.784,3.515,4.176
		c-0.368,0.097-0.755,0.149-1.155,0.149c-0.282,0-0.557-0.027-0.824-0.076c0.558,1.692,2.176,2.923,4.093,2.958
		c-1.5,1.142-3.389,1.823-5.442,1.823c-0.354,0-0.702-0.02-1.045-0.059c1.939,1.208,4.242,1.913,6.717,1.913
		c8.06,0,12.468-6.489,12.468-12.116c0-0.185-0.004-0.368-0.013-0.551c0.856-0.6,1.599-1.351,2.187-2.205
		c-0.786,0.339-1.63,0.568-2.517,0.671c0.905-0.527,1.6-1.362,1.927-2.356c-0.847,0.488-1.785,0.842-2.783,1.033
		C17.186,0.517,16.048,0,14.787,0"/>
</g>
</svg>
