<?xml version="1.0" encoding="utf-8"?>
<!-- Generator: Adobe Illustrator 17.0.0, SVG Export Plug-In . SVG Version: 6.00 Build 0)  -->
<!DOCTYPE svg PUBLIC "-//W3C//DTD SVG 1.1//EN" "http://www.w3.org/Graphics/SVG/1.1/DTD/svg11.dtd">
<svg version="1.1" id="Layer_1" xmlns="http://www.w3.org/2000/svg" xmlns:xlink="http://www.w3.org/1999/xlink" x="0px" y="0px"
	 width="20.328px" height="19.959px" viewBox="0 0 20.328 19.959" enable-background="new 0 0 20.328 19.959" xml:space="preserve">
<g>
	<path fill="#505050" d="M19.206,0H1.122C0.502,0,0,0.493,0,1.102v17.756c0,0.608,0.502,1.102,1.122,1.102h9.736V12.23H8.209V9.218
		h2.649V6.996c0-2.578,1.604-3.982,3.946-3.982c1.122,0,2.086,0.082,2.367,0.119v2.694l-1.625,0.001
		c-1.274,0-1.521,0.594-1.521,1.467v1.923h3.038l-0.396,3.012h-2.642v7.729h5.18c0.62,0,1.122-0.493,1.122-1.102V1.102
		C20.328,0.493,19.826,0,19.206,0z"/>
</g>
</svg>
