<?xml version="1.0" encoding="utf-8"?>
<!-- Generator: Adobe Illustrator 17.0.0, SVG Export Plug-In . SVG Version: 6.00 Build 0)  -->
<!DOCTYPE svg PUBLIC "-//W3C//DTD SVG 1.1//EN" "http://www.w3.org/Graphics/SVG/1.1/DTD/svg11.dtd">
<svg version="1.1" id="Layer_1" xmlns="http://www.w3.org/2000/svg" xmlns:xlink="http://www.w3.org/1999/xlink" x="0px" y="0px"
	 width="26px" height="19.996px" viewBox="0 0 26 19.996" enable-background="new 0 0 26 19.996" xml:space="preserve">
<g>
	<g>
		<g>
			<path fill="#505050" d="M5.056,7.904L4.473,6.01L3.889,7.904H2.002l1.527,1.191l-0.583,1.914l1.527-1.173l1.527,1.166
				L5.416,9.096l1.527-1.192H5.056z M11.104,9.096l1.527-1.192h-1.887L10.16,6.01L9.577,7.904H7.69l1.527,1.191l-0.583,1.914
				l1.527-1.173l1.527,1.166L11.104,9.096z M14.321,11.008l1.527-1.173l1.527,1.166l-0.583-1.905l1.527-1.192h-1.887L15.848,6.01
				l-0.583,1.894h-1.887l1.527,1.191L14.321,11.008z M20.009,11.008l1.527-1.173l1.527,1.166l-0.583-1.905l1.527-1.192h-1.887
				L21.536,6.01l-0.583,1.894h-1.887l1.527,1.191L20.009,11.008z M0.009,19.996h25.982L26,3.002H0L0.009,19.996z M14,19.001h-2v-6h2
				V19.001z M25,19.001H15v-2h10V19.001z M1,4.001h24v12H15v-4h-4v4H1V4.001z M1,17.001h10v2H1V17.001z M25.991,0H0.009L0,1.001h26
				L25.991,0z"/>
		</g>
	</g>
</g>
</svg>
