<?xml version="1.0" encoding="utf-8"?>
<!-- Generator: Adobe Illustrator 17.0.0, SVG Export Plug-In . SVG Version: 6.00 Build 0)  -->
<!DOCTYPE svg PUBLIC "-//W3C//DTD SVG 1.1//EN" "http://www.w3.org/Graphics/SVG/1.1/DTD/svg11.dtd">
<svg version="1.1" id="Layer_1" xmlns="http://www.w3.org/2000/svg" xmlns:xlink="http://www.w3.org/1999/xlink" x="0px" y="0px"
	 width="27px" height="17px" viewBox="0 0 27 17" enable-background="new 0 0 27 17" xml:space="preserve">
<g>
	<g>
		<g>
			<path fill="#505050" d="M26,3v13H3v1h24V3H26z M24,0H0v14h24V0z M4,13H1V1h3V13z M19,13H5V1h14V13z M23,13h-3V1h3V13z M10,12h6
				v-1h-5V8h2V7h-2V5c0.076-0.59,0.444-1,1-1c0.239,0,0.651-0.1,1,0c0.54,0.154,1,0.579,1,1h1c0-1.385-1.043-2.144-2.4-2.144
				C10.154,2.856,10,5,10,5v2H9v1h1V12z"/>
		</g>
	</g>
</g>
</svg>
