<?xml version="1.0" encoding="utf-8"?>
<!-- Generator: Adobe Illustrator 17.0.0, SVG Export Plug-In . SVG Version: 6.00 Build 0)  -->
<!DOCTYPE svg PUBLIC "-//W3C//DTD SVG 1.1//EN" "http://www.w3.org/Graphics/SVG/1.1/DTD/svg11.dtd">
<svg version="1.1" id="Layer_1" xmlns="http://www.w3.org/2000/svg" xmlns:xlink="http://www.w3.org/1999/xlink" x="0px" y="0px"
	 width="24px" height="23px" viewBox="0 0 24 23" enable-background="new 0 0 24 23" xml:space="preserve">
<g>
	<g>
		<g>
			<path fill="#505050" d="M17.393,6.141c-2.937-2.918-7.715-2.918-10.651,0c-2.937,2.918-2.937,7.665,0,10.583
				c1.468,1.459,3.397,2.188,5.325,2.188c1.929,0,3.857-0.729,5.326-2.188C20.33,13.807,20.33,9.059,17.393,6.141z M16.59,15.926
				c-2.493,2.477-6.551,2.477-9.044,0c-2.494-2.478-2.494-6.509,0-8.987c1.247-1.239,2.884-1.858,4.522-1.858
				c1.637,0,3.276,0.62,4.522,1.858C19.083,9.417,19.083,13.449,16.59,15.926z M11.436,3.014C11.467,3.012,11.48,3.011,11.5,3.01
				c0.02,0.002,0.033,0.003,0.064,0.005L12,3V0h-1v3l0.361,0.019L11.436,3.014z M18.633,16.981
				c-0.147,0.163-0.273,0.294-0.396,0.412c-0.124,0.12-0.259,0.241-0.426,0.383l-0.059,0.05l2.296,2.222l0.93-0.901l-2.295-2.222
				L18.633,16.981z M5.513,5.877c0.146-0.162,0.272-0.293,0.396-0.412c0.124-0.12,0.26-0.242,0.426-0.383l0.059-0.05L4.099,2.81
				L3.168,3.71l2.295,2.222L5.513,5.877z M21,11c0.026,0.419,0.026,0.581,0,1h3v-1H21z M11,20.019V23h1v-3h-1
				C10.789,20.012,10.895,20.019,11,20.019z M0,11v1h3c-0.026-0.419-0.026-0.581,0-1H0z M18.438,5.896l0.05,0.056l2.148-2.135
				l-0.904-0.898l-2.148,2.135l0.056,0.05C17.956,5.382,18.157,5.582,18.438,5.896z M5.663,17.004l-0.05-0.056l-2.249,2.235
				l0.904,0.898l2.249-2.235l-0.056-0.05C6.145,17.518,5.944,17.318,5.663,17.004z"/>
		</g>
	</g>
</g>
</svg>
