<?xml version="1.0" encoding="utf-8"?>
<!-- Generator: Adobe Illustrator 17.0.0, SVG Export Plug-In . SVG Version: 6.00 Build 0)  -->
<!DOCTYPE svg PUBLIC "-//W3C//DTD SVG 1.1//EN" "http://www.w3.org/Graphics/SVG/1.1/DTD/svg11.dtd">
<svg version="1.1" id="Layer_1" xmlns="http://www.w3.org/2000/svg" xmlns:xlink="http://www.w3.org/1999/xlink" x="0px" y="0px"
	 width="6.598px" height="6.903px" viewBox="0 0 6.598 6.903" enable-background="new 0 0 6.598 6.903" xml:space="preserve">
<g>
	<g>
		<g>
			<path fill="#505050" d="M6.52,6.309L3.847,3.451L6.52,0.593c0.118-0.126,0.099-0.314-0.043-0.419
				C6.336,0.068,6.125,0.085,6.007,0.211L3.355,3.046L0.61,0.11C0.488-0.02,0.27-0.037,0.124,0.071
				C-0.022,0.18-0.042,0.373,0.08,0.504l2.757,2.948L0.08,6.399c-0.122,0.13-0.102,0.324,0.044,0.433
				C0.27,6.94,0.488,6.922,0.61,6.792l2.746-2.935l2.651,2.834c0.118,0.126,0.329,0.143,0.471,0.038
				C6.619,6.623,6.638,6.436,6.52,6.309z"/>
		</g>
	</g>
</g>
</svg>
