<?xml version="1.0" encoding="utf-8"?>
<!-- Generator: Adobe Illustrator 17.0.0, SVG Export Plug-In . SVG Version: 6.00 Build 0)  -->
<!DOCTYPE svg PUBLIC "-//W3C//DTD SVG 1.1//EN" "http://www.w3.org/Graphics/SVG/1.1/DTD/svg11.dtd">
<svg version="1.1" id="Layer_1" xmlns="http://www.w3.org/2000/svg" xmlns:xlink="http://www.w3.org/1999/xlink" x="0px" y="0px"
	 width="42.499px" height="37.5px" viewBox="0 0 42.499 37.5" enable-background="new 0 0 42.499 37.5" xml:space="preserve">
<g>
	<path fill="#505050" d="M39.697,11.309c-0.665-0.967-2.078-1.583-3.746-1.583c-1.617,0-3.007,0.587-3.693,1.511
		c-1.869,0.292-3.174,1.398-3.174,2.759c0,0.636,0.283,1.231,0.819,1.721l0.288,0.263H32.7l-2.758,2.752h-2.371l-2.719-2.251h2.588
		c0.152-0.156,0.238-0.327,0.238-0.508c0-0.647-1.078-1.179-2.465-1.25c-0.269-0.568-1.384-0.994-2.719-0.994
		c-1.353,0-2.48,0.437-2.729,1.016c-1.243,0.126-2.172,0.627-2.172,1.228c0,0.181,0.086,0.353,0.238,0.508h4.186l3.042,3.038
		l-3.624,1.134l-8.138-4.373l4.062-4.054h4.889l3.761-3.753h8.428l0.278-0.55c0.253-0.501,0.5-1.046,0.5-1.701
		c0-1.781-1.69-3.282-4.176-3.771C30.166,0.983,28.01,0,25.515,0c-2.474,0-4.567,0.908-5.468,2.316
		c-2.736,0.365-4.733,1.984-4.733,3.916c0,0.648,0.236,1.171,0.5,1.693l0.278,0.551h7.081l-1.755,1.751h-4.889l-4.87,4.86
		l-3.623-4.109h4.806c0.366-0.335,0.581-0.731,0.581-1.157c0-1.029-1.237-1.888-2.891-2.104C10.199,6.723,8.7,5.973,6.899,5.973
		c-1.777,0-3.26,0.73-3.618,1.704C1.435,7.799,0,8.712,0,9.82c0,0.426,0.215,0.823,0.581,1.157h4.782l5.556,6.3l9.409,5.056v10.708
		c-2.732,0.223-5.256,1.251-7.2,2.954l1.323,1.505c1.844-1.614,4.332-2.503,7.006-2.503c2.664,0,5.146,0.883,6.987,2.487
		l1.319-1.508c-2.001-1.743-4.613-2.772-7.429-2.95V22.471l5.544-1.736h2.895l4.764-4.754h5.855l0.287-0.263
		c0.536-0.49,0.819-1.085,0.819-1.722C42.499,12.743,41.371,11.686,39.697,11.309z M17.32,6.232c0-0.826,1.47-1.846,3.438-1.976
		l0.651-0.043l0.225-0.611c0.289-0.787,1.821-1.6,3.883-1.6c2.058,0,3.623,0.867,3.892,1.671l0.199,0.594l0.622,0.081
		c1.841,0.24,2.981,1.161,2.981,1.876c0,0.074-0.013,0.152-0.044,0.25H17.362C17.332,6.379,17.32,6.303,17.32,6.232z M31.091,13.98
		c0.034-0.215,0.68-0.728,1.85-0.806l0.651-0.043l0.224-0.611c0.098-0.268,0.848-0.792,2.134-0.792c1.245,0,2.04,0.511,2.136,0.798
		l0.199,0.594l0.622,0.081c1.061,0.139,1.551,0.602,1.582,0.779H31.091z"/>
</g>
</svg>
