<?xml version="1.0" encoding="utf-8"?>
<!-- Generator: Adobe Illustrator 17.0.0, SVG Export Plug-In . SVG Version: 6.00 Build 0)  -->
<!DOCTYPE svg PUBLIC "-//W3C//DTD SVG 1.1//EN" "http://www.w3.org/Graphics/SVG/1.1/DTD/svg11.dtd">
<svg version="1.1" id="Layer_1" xmlns="http://www.w3.org/2000/svg" xmlns:xlink="http://www.w3.org/1999/xlink" x="0px" y="0px"
	 width="40px" height="39.75px" viewBox="0 0 40 39.75" enable-background="new 0 0 40 39.75" xml:space="preserve">
<g>
	<g>
		<g>
			<path fill="#505050" d="M39.659,17.386l0.208-0.438l-8.892-4.226H29.88l1.586-2.356l-7.243-1.941
				c0.337-0.62,0.528-1.33,0.528-2.084c0-2.415-1.963-4.379-4.375-4.379C17.963,1.962,16,3.926,16,6.341
				c0,0.755,0.192,1.466,0.53,2.087l-4.873,3.794h-1.632l-9.953,4.726l0.181,0.383L0,17.173v17.125l8.713,5.451h22.574L40,34.298
				V17.173L39.659,17.386z M20.375,3.964c1.309,0,2.375,1.066,2.375,2.377c0,1.311-1.065,2.377-2.375,2.377
				C19.065,8.719,18,7.652,18,6.341C18,5.03,19.065,3.964,20.375,3.964z M8,36.942l-6-3.754V20.785l6,3.754V36.942z M30,37.747H10
				V24.985h20V37.747z M38,33.189l-6,3.754V24.539l6-3.754V33.189z M30.713,22.983H9.287L1.84,18.324l8.635-4.1h0.804l1.147,3.445
				l1.898-0.633l-1.151-3.458l2.657-2.068l1.439,7.41l1.963-0.382l-1.729-8.901c0.769,0.673,1.773,1.084,2.872,1.084
				c1.072,0,2.054-0.39,2.816-1.033l-1.674,8.855l1.965,0.372l1.549-8.2l3.208,0.86l-2.12,3.15h4.404l7.609,3.616L30.713,22.983z
				 M4.948,7.706c0.445,0.701,0.738,1.165-0.659,3.587l1.732,1.001C7.88,9.071,7.449,7.915,6.637,6.633
				c-0.18-0.285-0.336-0.531-0.43-0.844C5.96,4.956,6.87,4.579,7.155,4.483L6.541,2.578c-1.238,0.395-2.86,1.727-2.25,3.781
				C4.463,6.94,4.732,7.364,4.948,7.706z M10.155,9.467l1.127-1.654c-1.688-1.187-0.634-2.946-0.406-3.286
				c0.951-1.418,1.193-2.536,0.74-3.419C11.081,0.069,9.885,0.004,9.75,0L9.691,2.001c0.004,0,0.089,0.016,0.142,0.039
				c0.001,0.11-0.043,0.514-0.617,1.37C7.939,5.313,8.263,6.873,8.76,7.846C9.273,8.852,10.066,9.407,10.155,9.467z"/>
		</g>
	</g>
</g>
</svg>
