<?xml version="1.0" encoding="utf-8"?>
<!-- Generator: Adobe Illustrator 17.0.0, SVG Export Plug-In . SVG Version: 6.00 Build 0)  -->
<!DOCTYPE svg PUBLIC "-//W3C//DTD SVG 1.1//EN" "http://www.w3.org/Graphics/SVG/1.1/DTD/svg11.dtd">
<svg version="1.1" id="Layer_1" xmlns="http://www.w3.org/2000/svg" xmlns:xlink="http://www.w3.org/1999/xlink" x="0px" y="0px"
	 width="43.5px" height="35.75px" viewBox="0 0 43.5 35.75" enable-background="new 0 0 43.5 35.75" xml:space="preserve">
<g>
	<g>
		<g>
			<path fill="#505050" d="M43.5,24.375c0-2.412-1.963-4.375-4.375-4.375c-2.412,0-4.375,1.963-4.375,4.375
				c0,1.693,0.969,3.161,2.379,3.888l-1.629,1.26v6.226h2v-5.245l1.75-1.354L41,30.505v5.245h2v-6.226l-1.731-1.339
				C42.599,27.433,43.5,26.008,43.5,24.375z M39.394,26.734l-0.032-0.025l-0.023,0.03c-0.056,0.005-0.113,0.008-0.17,0.009
				l-0.03-0.039l-0.051,0.039c-1.292-0.02-2.338-1.076-2.338-2.373c0-1.31,1.065-2.375,2.375-2.375s2.375,1.065,2.375,2.375
				C41.5,25.594,40.577,26.6,39.394,26.734z M28.408,8.686c1.113-0.794,1.842-2.093,1.842-3.561c0-2.412-1.963-4.375-4.375-4.375
				c-2.412,0-4.375,1.963-4.375,4.375c0,1.46,0.721,2.752,1.824,3.547L22.39,9.224L18.906,7.75C19.879,6.946,20.5,5.732,20.5,4.375
				C20.5,1.963,18.537,0,16.125,0c-2.412,0-4.375,1.963-4.375,4.375c0,1.318,0.589,2.5,1.514,3.302L8.576,9.661L12,23.621V35.75h2
				V23.379l-3.076-12.54l4.966-2.101c0.078,0.004,0.156,0.012,0.235,0.012c0.014,0,0.028-0.002,0.042-0.002
				c0.037,0.022,0.074,0.045,0.115,0.063l4.01,1.697c0.452,0.191,0.699,0.682,0.582,1.159l-2.844,11.595
				C18.01,23.34,18,23.42,18,23.5v12.25h2V24.5h1.861l1.082,11.25h2.009L23.678,22.5h-3.403l2.539-10.351l0.336-1.238l2.559-1.371
				l2.69,1.394L31.452,22.5h-2.81l-2.038,13.25h2.023l1.731-11.25H34L30.107,9.566L28.408,8.686z M16.125,6.75
				c-0.066,0-0.132-0.005-0.197-0.01L15.86,6.579l-0.261,0.11c-1.057-0.24-1.849-1.186-1.849-2.314C13.75,3.065,14.815,2,16.125,2
				S18.5,3.065,18.5,4.375C18.5,5.685,17.435,6.75,16.125,6.75z M25.875,7.5c-0.097,0-0.193-0.008-0.287-0.019l-0.06-0.112
				L25.39,7.45c-1.078-0.224-1.89-1.182-1.89-2.325c0-1.31,1.065-2.375,2.375-2.375s2.375,1.065,2.375,2.375
				C28.25,6.435,27.185,7.5,25.875,7.5z M8.75,19.625c0-2.412-1.963-4.375-4.375-4.375C1.963,15.25,0,17.213,0,19.625
				c0,1.693,0.969,3.161,2.379,3.888l-1.629,1.26V35.75h2v-9.995l1.75-1.354l1.75,1.354v9.995h2V24.774l-1.731-1.339
				C7.849,22.683,8.75,21.258,8.75,19.625z M4.644,21.984l-0.032-0.025l-0.023,0.03c-0.056,0.005-0.113,0.008-0.17,0.009
				l-0.03-0.039l-0.051,0.039C3.045,21.978,2,20.922,2,19.625c0-1.31,1.066-2.375,2.375-2.375c1.309,0,2.375,1.065,2.375,2.375
				C6.75,20.844,5.827,21.85,4.644,21.984z"/>
		</g>
	</g>
</g>
</svg>
