<?xml version="1.0" encoding="utf-8"?>
<!-- Generator: Adobe Illustrator 17.0.0, SVG Export Plug-In . SVG Version: 6.00 Build 0)  -->
<!DOCTYPE svg PUBLIC "-//W3C//DTD SVG 1.1//EN" "http://www.w3.org/Graphics/SVG/1.1/DTD/svg11.dtd">
<svg version="1.1" id="Layer_1" xmlns="http://www.w3.org/2000/svg" xmlns:xlink="http://www.w3.org/1999/xlink" x="0px" y="0px"
	 width="26px" height="22.999px" viewBox="0 0 26 22.999" enable-background="new 0 0 26 22.999" xml:space="preserve">
<g>
	<g>
		<g>
			<path fill="#505050" d="M17.073,3.29L9.442,0.238L0,3.525v19.475l9.409-3.274l7.644,3.057L26,19.484V0L17.073,3.29z
				 M8.775,18.642L1.3,21.244V4.375l7.475-2.602V18.642z M16.413,21.198l-6.337-2.534V1.819l6.337,2.534V21.198z M24.7,18.651
				l-6.987,2.575V4.366L24.7,1.791V18.651z M5.119,10.363c1.568,0,2.844-1.199,2.844-2.672c0-1.474-1.276-2.672-2.844-2.672
				c-1.568,0-2.844,1.199-2.844,2.672C2.275,9.164,3.551,10.363,5.119,10.363z M5.119,6.24c0.851,0,1.544,0.651,1.544,1.451
				c0,0.8-0.693,1.451-1.544,1.451S3.575,8.491,3.575,7.691C3.575,6.891,4.268,6.24,5.119,6.24z M5.119,8.226
				c0.314,0,0.569-0.239,0.569-0.534c0-0.295-0.255-0.534-0.569-0.534S4.55,7.396,4.55,7.691C4.55,7.986,4.805,8.226,5.119,8.226z
				 M13.244,17.541c1.568,0,2.844-1.199,2.844-2.672c0-1.474-1.276-2.672-2.844-2.672c-1.568,0-2.844,1.199-2.844,2.672
				C10.4,16.342,11.676,17.541,13.244,17.541z M13.244,13.417c0.851,0,1.544,0.651,1.544,1.451c0,0.8-0.693,1.451-1.544,1.451
				S11.7,15.668,11.7,14.868C11.7,14.068,12.393,13.417,13.244,13.417z M13.244,15.403c0.314,0,0.569-0.239,0.569-0.534
				c0-0.295-0.255-0.535-0.569-0.535c-0.314,0-0.569,0.239-0.569,0.535C12.675,15.163,12.93,15.403,13.244,15.403z M21.206,10.363
				c1.568,0,2.844-1.199,2.844-2.672c0-1.474-1.276-2.672-2.844-2.672c-1.568,0-2.844,1.199-2.844,2.672
				C18.363,9.164,19.638,10.363,21.206,10.363z M21.206,6.24c0.851,0,1.544,0.651,1.544,1.451c0,0.8-0.693,1.451-1.544,1.451
				c-0.851,0-1.544-0.651-1.544-1.451C19.663,6.891,20.355,6.24,21.206,6.24z M21.206,8.226c0.314,0,0.569-0.239,0.569-0.534
				c0-0.295-0.255-0.534-0.569-0.534c-0.314,0-0.569,0.239-0.569,0.534C20.638,7.986,20.892,8.226,21.206,8.226z"/>
		</g>
	</g>
</g>
</svg>
