<?xml version="1.0" encoding="utf-8"?>
<!-- Generator: Adobe Illustrator 17.0.0, SVG Export Plug-In . SVG Version: 6.00 Build 0)  -->
<!DOCTYPE svg PUBLIC "-//W3C//DTD SVG 1.1//EN" "http://www.w3.org/Graphics/SVG/1.1/DTD/svg11.dtd">
<svg version="1.1" id="Layer_1" xmlns="http://www.w3.org/2000/svg" xmlns:xlink="http://www.w3.org/1999/xlink" x="0px" y="0px"
	 width="86.545px" height="43.743px" viewBox="436.751 258.458 86.545 43.743"
	 enable-background="new 436.751 258.458 86.545 43.743" xml:space="preserve">
<g>
	<path fill="none" d="M436.751,258.458h86.545v32.925h-86.545V258.458z"/>
	<path fill="#FFFFFF" d="M437.692,259.399h84.663v31.043h-84.663V259.399z"/>
	<path fill="#231F20" d="M485.668,259.399h-47.976v31.043h47.976l25.587-15.475L485.668,259.399z M492.112,270.922
		c0.094-0.047,0.564-0.188,0.611-0.235c0.047-0.047,0.094-0.094,0.188-0.094c0.094,0,0.188,0,0.235,0.094
		c0.094,0.188,0.094,0.564,0.094,0.659c-0.094,0.235-0.282,0.423-0.423,0.517c-0.094,0.047-0.941,0.282-0.988,0.235
		c-0.047,0-0.047,0-0.047-0.047c-0.047-0.047-0.047-0.094-0.047-0.141c0-0.141-0.094-0.423-0.141-0.517
		C491.5,271.346,491.688,271.063,492.112,270.922z M452.743,275.626c-0.376,1.223-1.317,2.022-2.399,2.022
		c-1.928,0.047-0.658-2.493-0.564-3.151c-2.117,1.693-3.857,4.139-6.397,5.973c-0.141-0.141-0.47,0-0.329-0.329
		c0.141-0.329,1.881-2.634,2.446-3.387c0.517-0.706,0.8-1.317,0.847-1.693c0.141-1.599-1.317-0.847-2.493-0.8
		c-1.881,0.047-2.117-0.988-1.552-2.399c0.517-1.27,1.928-2.916,3.575-4.656c0.611-0.47,1.27-0.47,1.928-0.047
		c0.141,0.094,0.376,0.235,0.329,0.282c-0.517,0.517-3.622,4.468-3.998,5.456c-0.094,0.235-0.188,0.329-0.141,0.376
		c0.423,0.094,1.364-0.047,1.693-0.047c0.847,0,2.634,0.141,2.54,1.552c-0.047,0.376-0.188,0.753-0.376,1.082
		c1.27-1.223,2.164-2.775,3.292-2.822c0.564,0,0.847,0.376,1.881,0.235C452.978,274.074,452.978,274.873,452.743,275.626z
		 M469.77,278.166h-0.564c-1.035,0.047-1.129-1.928-1.505-2.54c-0.988,0.141-1.646,2.587-3.198,3.057l-0.376,0.094v-0.376
		c0-1.27,0.8-3.669,1.129-5.08c0.047-0.235,0.329-0.941,0.329-1.223c-0.941,0.517-1.693,0.847-1.928,1.082
		c-0.235,0.282-1.035,1.834-1.317,3.104c-0.141,0.517-0.423,2.211-0.329,2.681c-1.176-0.517-0.988-2.258-0.894-3.151
		c-0.753,0.423-1.787,1.505-2.634,1.505c-1.458,0.047-0.847-1.881-0.847-2.869c-0.611,0.659-2.399,3.998-3.81,4.045
		c-0.706,0-0.8-1.599-0.706-2.07c0.235-1.035,1.317-3.198,1.317-3.198c0.235-0.141,0.988-0.423,1.364-0.423h0.706
		c-0.8,1.646-2.399,3.81-1.928,4.609c0.988-0.753,2.164-3.951,4.092-3.998c1.411-0.047,0.282,2.493,0.564,3.339
		c0.282-0.188,1.787-1.223,2.211-2.446c0.047-0.094,0.047-0.188,0.094-0.282c0-0.094,0.047-0.141-0.235-0.094
		c-0.329,0.047-0.753,0.141-0.988-0.141c0.706-0.094,1.787-0.753,1.881-0.988c0.423-0.941,0.611-1.975,1.176-2.681
		c0.47,0,0.282-0.141,0.658-0.188c1.458-0.188-0.047,1.411-0.141,2.07c0.235,0,1.176-0.282,2.022-0.517l1.458-3.434
		c0.329-0.047,0.611-0.235,0.941-0.235c0.047,0,0.141,0.047,0.235,0.094c0.282,0.188,0.235,0.517,0.047,0.847
		c-0.8,1.458-1.035,2.305-1.646,4.139c-0.329,0.894-0.611,1.975-0.894,3.01c0.235-0.235,2.587-2.352,3.104-1.317
		C469.582,275.532,470.052,277.037,469.77,278.166z M484.774,276.049c-0.047,0.282-0.094,1.599-0.141,1.928
		c-0.047,0.423-0.047,0.753-0.376,0.847c-0.706,0.235-1.27-2.493-0.753-5.691l-1.646,0.564c0.188,1.599,0.235,3.339,0.753,5.127
		c0.094,0.282-0.282,0.094-0.376,0c-1.082-0.988-1.364-2.822-1.693-4.703c-1.364,0.47-2.728,0.894-3.904,1.27
		c-0.47,1.129-0.894,2.117-1.129,2.728c-0.141,0.376-0.376,0.894-0.847,1.176c-0.611,0.376-1.411,0-1.834,0.047
		c0.094-0.329,0.753-1.599,1.552-3.245c-0.376,0.094-0.611,0.188-0.658,0.188c-0.517-0.094-1.646-0.847-1.223-1.082
		c0.188-0.094,1.27-0.47,2.822-0.941c1.693-3.245,3.716-6.914,4.186-7.243c0.423-0.282,1.27,0,1.411,0.047
		c0.517,0.188,0.47,1.928,0.8,5.268c0.706-0.188,1.411-0.423,2.022-0.611c0.094-0.329,0.141-0.659,0.235-0.988l0.141-0.564
		c0.282-0.8,1.176-2.822,3.057-3.245c1.27-0.282,1.035,0.517,0.847,0.659c-1.035,0.517-2.587,1.129-2.869,3.387l-0.047,0.329
		c0.706-0.188,1.223-0.376,1.458-0.47c2.164-0.706,1.881-0.235,2.493-0.611c-0.047,0.376-0.329,0.847-0.611,1.035
		c-0.235,0.141-0.753,0.329-1.317,0.564c-0.047,0-0.894,0.282-2.117,0.706L484.774,276.049z M487.267,276.661
		c-0.094,0.658-0.141,0.611-0.188,0.8c-0.047,0.235-0.047,0.329-0.047,0.423c0,0-0.706,0.282-0.988,0.235
		c-0.282,0-0.517-0.282-0.517-0.282l0.847-3.669c0.047-0.141,0.094-0.235,0.188-0.376c0.047-0.047,0.094-0.047,0.094-0.094
		c0.235-0.094,0.564-0.188,0.941-0.235c-0.188,0.329-0.376,0.753-0.423,1.129c0.376-0.564,0.847-0.847,1.411-1.129
		c0.564-0.282,1.364-0.094,1.364-0.094c0.188,0,0.141,0.094-0.047,0.282C488.161,274.356,487.549,275.767,487.267,276.661z
		 M500.578,277.507c0,0-0.941,0.376-1.317-0.847c-0.611,0.658-1.27,0.988-1.975,1.035c-0.706,0.047-0.847-0.564-0.706-1.364
		c-0.753,1.035-1.646,1.975-2.352,1.975c-1.646,0-1.834-1.317-1.599-2.446c0.047-0.141,0.094-0.329,0.188-0.47
		c-0.847,1.035-1.928,2.493-2.728,2.493c-0.564,0-0.753-0.988-0.611-1.881c0.141-0.8,1.364-2.587,1.364-2.587
		c0.188-0.141,0.753-0.282,1.223-0.329c0.235,0,0.564,0,0.564,0c-0.659,1.317-2.07,3.01-1.74,3.622
		c0.094,0.141,1.693-1.881,3.151-2.916c0.706-0.564,1.693-0.941,2.822-0.706c0.188,0.282-1.834,0.706-2.587,2.963
		c-0.235,0.706,0,1.27,0.329,1.27c0.753,0,1.787-1.458,2.634-2.634c0.094-0.141,0.141-0.282,0.235-0.376l0.047-0.047
		c0.47-0.706,1.082-1.27,1.646-1.317c0.517-0.047,1.035,0,1.693,0.141c-0.047,0.141-0.094,0.329-0.141,0.47
		c-0.141,0.659-0.423,1.787-0.423,2.587C500.249,276.99,500.578,277.507,500.578,277.507z"/>
	<path fill="#231F20" d="M451.426,274.356c-0.094,0.188-0.188,0.141-0.329,0.47c-0.188,0.517-0.47,1.787-0.282,2.211
		c0.329-0.329,0.611-0.658,0.753-0.988C451.708,275.673,451.849,274.497,451.426,274.356z"/>
	<path fill="#231F20" d="M479.882,268.617c-0.376,0.564-1.458,2.822-2.446,5.033c0.941-0.282,1.928-0.564,2.916-0.847
		c-0.235-1.693-0.282-3.434-0.329-4.139C480.023,268.476,479.882,268.617,479.882,268.617z"/>
	<path fill="#231F20" d="M499.308,273.885c-0.141,0.047-0.282,0.141-0.517,0.517c-0.376,0.564-1.035,1.975-0.941,2.446
		c0.423-0.235,0.8-0.659,1.129-1.176C499.261,275.296,499.778,273.979,499.308,273.885z"/>
	<path fill="#FFCB05" d="M511.255,274.967l-25.587,15.475h5.644l25.352-15.475l-25.352-15.569h-5.644"/>
	<path fill="#00984A" d="M516.57,274.967l-25.258,15.475h9.877l21.166-13.64v-3.763l-21.166-13.64h-9.877"/>
	<path fill="#ED1C24" d="M522.355,259.399v9.877l-15.522-9.877H522.355z"/>
	<path fill="#034694" d="M522.355,290.442v-9.877l-15.522,9.877H522.355z"/>
	<path fill="#FFFFFF" d="M453.308,297.356l-0.188,1.27c-0.141,1.035-0.188,1.458-0.235,1.834h-0.894
		c0.047-0.329,0.141-0.847,0.282-1.834l0.188-1.27c0.141-0.941,0.188-1.411,0.235-1.74h0.894
		C453.543,295.992,453.449,296.415,453.308,297.356"/>
	<path fill="#FFFFFF" d="M457.211,298.485l-0.141,0.941c-0.047,0.376-0.094,0.706-0.141,1.035h-0.847l0.235-1.834
		c0-0.141,0.047-0.376,0.047-0.517c0-0.329-0.141-0.517-0.329-0.517c-0.235,0-0.517,0.141-0.988,0.8c0,0-0.235,1.834-0.282,2.07
		h-0.847c0.094-0.517,0.188-1.176,0.282-1.787c0.141-0.988,0.141-1.411,0.094-1.693l0.847-0.047c0,0.141,0,0.423-0.047,0.8
		c0.611-0.753,0.988-0.847,1.411-0.847c0.47,0,0.753,0.282,0.753,0.894C457.306,298.014,457.259,298.297,457.211,298.485"/>
	<path fill="#FFFFFF" d="M459.939,297.779c-0.188-0.141-0.423-0.235-0.658-0.235c-0.376,0-0.517,0.235-0.517,0.423
		c0,0.235,0.094,0.376,0.47,0.611c0.423,0.282,0.611,0.517,0.611,0.941c0,0.517-0.423,1.082-1.364,1.082
		c-0.329,0-0.706-0.094-0.894-0.235l0.141-0.706c0.235,0.235,0.517,0.376,0.8,0.376c0.329,0,0.517-0.141,0.517-0.423
		c0-0.188-0.094-0.329-0.423-0.564c-0.47-0.329-0.659-0.564-0.659-0.988c0-0.611,0.423-1.129,1.317-1.129
		c0.329,0,0.611,0.094,0.8,0.141"/>
	<path fill="#FFFFFF" d="M461.774,300.554c-0.235,0-0.47-0.094-0.611-0.141c-0.094,0.611-0.188,1.223-0.282,1.74h-0.894
		c0.094-0.611,0.235-1.364,0.423-2.728c0.188-1.317,0.282-2.117,0.235-2.352l0.894-0.047c0,0.094-0.047,0.517-0.094,0.706
		c0.47-0.611,0.894-0.8,1.317-0.8c0.564,0,0.894,0.423,0.894,1.27C463.749,299.284,462.95,300.554,461.774,300.554 M462.432,297.591
		c-0.282,0-0.611,0.235-0.988,0.753l-0.188,1.364c0.141,0.141,0.282,0.188,0.517,0.188c0.706,0,1.129-0.894,1.129-1.599
		C462.903,297.826,462.715,297.591,462.432,297.591"/>
	<path fill="#FFFFFF" d="M465.254,298.673c-0.094,0.8-0.235,1.552-0.235,1.787h-0.847c0.047-0.235,0.094-0.659,0.235-1.646
		c0.141-0.988,0.188-1.505,0.235-1.834l0.894-0.047C465.396,297.497,465.349,297.92,465.254,298.673 M465.207,296.274
		c-0.235,0-0.47-0.141-0.47-0.376c0-0.282,0.235-0.47,0.517-0.47c0.235,0,0.47,0.094,0.47,0.376
		C465.725,296.133,465.443,296.274,465.207,296.274"/>
	<path fill="#FFFFFF" d="M468.265,297.779c-0.094-0.047-0.188-0.094-0.329-0.094c-0.329,0-0.611,0.235-0.894,0.941l-0.094,0.8
		c-0.047,0.329-0.094,0.706-0.141,1.035h-0.894c0.094-0.47,0.141-0.941,0.235-1.693c0.141-0.847,0.188-1.458,0.141-1.787
		l0.847-0.047c0,0.141-0.047,0.564-0.094,0.847c0.329-0.611,0.659-0.847,1.082-0.847c0.141,0,0.235,0.047,0.282,0.047"/>
	<path fill="#FFFFFF" d="M469.535,298.673c-0.094,0.8-0.235,1.552-0.235,1.787h-0.847c0.047-0.235,0.094-0.659,0.235-1.646
		c0.141-0.988,0.188-1.505,0.235-1.834l0.894-0.047C469.723,297.497,469.629,297.92,469.535,298.673 M469.488,296.274
		c-0.235,0-0.47-0.141-0.47-0.376c0-0.282,0.235-0.47,0.517-0.47c0.235,0,0.47,0.094,0.47,0.376
		C470.005,296.133,469.77,296.274,469.488,296.274"/>
	<path fill="#FFFFFF" d="M473.533,298.485l-0.141,0.941c-0.047,0.376-0.094,0.706-0.141,1.035h-0.847l0.235-1.834
		c0-0.141,0.047-0.376,0.047-0.517c0-0.329-0.141-0.517-0.329-0.517c-0.235,0-0.517,0.141-0.988,0.8c0,0-0.235,1.834-0.282,2.07
		h-0.847c0.094-0.517,0.188-1.176,0.282-1.787c0.141-0.988,0.141-1.411,0.094-1.693l0.847-0.047c0,0.141,0,0.423-0.047,0.8
		c0.611-0.753,0.988-0.847,1.411-0.847c0.47,0,0.753,0.282,0.753,0.894C473.58,298.014,473.533,298.297,473.533,298.485"/>
	<path fill="#FFFFFF" d="M477.201,298.579c-0.141,1.035-0.188,1.505-0.329,2.022c-0.235,1.082-0.988,1.599-1.975,1.599
		c-0.329,0-0.8-0.094-1.035-0.282l0.094-0.706c0.282,0.235,0.658,0.376,0.988,0.376c0.517,0,0.941-0.329,1.082-0.988
		c0.047-0.235,0.141-0.658,0.188-0.941c-0.517,0.659-0.894,0.894-1.317,0.894c-0.564,0-0.847-0.47-0.847-1.176
		c0-1.317,0.988-2.446,2.164-2.446c0.282,0,0.47,0.047,0.611,0.094c0.141,0,0.423-0.094,0.564-0.094
		C477.437,297.215,477.342,297.732,477.201,298.579 M476.12,297.544c-0.564,0-1.176,0.753-1.176,1.646
		c0,0.47,0.141,0.611,0.376,0.611c0.282,0,0.564-0.282,1.035-0.894c0.047-0.329,0.188-1.082,0.235-1.27
		C476.449,297.591,476.308,297.544,476.12,297.544"/>
	<path fill="#FFFFFF" d="M482.752,298.485l-0.141,0.941c-0.047,0.376-0.094,0.706-0.141,1.035h-0.847l0.235-1.834
		c0-0.141,0.047-0.376,0.047-0.517c0-0.329-0.141-0.517-0.329-0.517c-0.235,0-0.517,0.141-0.988,0.8c0,0-0.235,1.834-0.282,2.07
		h-0.847c0.094-0.517,0.188-1.176,0.282-1.787c0.141-0.988,0.141-1.411,0.094-1.693l0.847-0.047c0,0.141,0,0.423-0.047,0.8
		c0.611-0.753,0.988-0.847,1.411-0.847c0.47,0,0.753,0.282,0.753,0.894C482.846,298.014,482.799,298.297,482.752,298.485"/>
	<path fill="#FFFFFF" d="M484.163,299.049c0,0.047,0,0.141,0,0.188c0,0.376,0.141,0.659,0.611,0.659c0.329,0,0.8-0.235,1.176-0.564
		l0.047,0.658c-0.47,0.329-0.941,0.517-1.411,0.517c-0.8,0-1.223-0.47-1.223-1.317c0-1.082,0.8-2.305,2.07-2.305
		c0.658,0,0.988,0.329,0.988,0.8C486.373,298.344,485.809,298.861,484.163,299.049 M485.197,297.497
		c-0.423,0-0.894,0.47-0.988,1.035c0.941-0.094,1.411-0.376,1.411-0.706C485.621,297.544,485.338,297.497,485.197,297.497"/>
	<path fill="#FFFFFF" d="M491.077,298.579c-0.329,0.753-0.753,1.458-0.941,1.881h-0.8c-0.047-0.659-0.141-1.928-0.235-2.305
		c0-0.094,0-0.188,0-0.282c0,0.094-0.094,0.235-0.094,0.329c-0.141,0.376-0.706,1.693-0.988,2.258h-0.941
		c-0.047-0.47-0.094-1.223-0.235-2.07c-0.094-0.894-0.282-1.176-0.376-1.364l0.847-0.094c0.047,0.094,0.188,0.376,0.282,1.27
		c0.047,0.376,0.047,0.8,0.094,1.223c0,0.094,0,0.188,0,0.282c0.047-0.141,0.047-0.188,0.094-0.282
		c0.329-0.706,0.8-1.787,1.035-2.446h0.706c0.094,0.47,0.235,1.787,0.282,2.446c0,0.094,0,0.188,0,0.329
		c0.047-0.094,0.047-0.188,0.094-0.282c0.141-0.235,0.329-0.611,0.517-1.129c0.235-0.659,0.376-1.082,0.376-1.364h0.753
		C491.5,297.356,491.406,297.779,491.077,298.579"/>
	<path fill="#FFFFFF" d="M497.709,298.579c-0.329,0.753-0.753,1.458-0.941,1.881h-0.8c-0.047-0.659-0.141-1.928-0.235-2.305
		c0-0.094,0-0.188,0-0.282c0,0.094-0.094,0.235-0.094,0.329c-0.141,0.376-0.706,1.693-0.988,2.258h-0.894
		c-0.047-0.47-0.094-1.223-0.235-2.07c-0.094-0.894-0.282-1.176-0.376-1.364l0.847-0.094c0.047,0.094,0.188,0.376,0.282,1.27
		c0.047,0.376,0.094,0.8,0.094,1.223c0,0.094,0,0.188,0,0.282c0.047-0.141,0.094-0.188,0.094-0.282
		c0.329-0.706,0.8-1.787,1.035-2.446h0.706c0.094,0.47,0.235,1.787,0.282,2.446c0,0.094,0,0.188,0,0.329
		c0.047-0.094,0.047-0.188,0.094-0.282c0.141-0.235,0.329-0.611,0.517-1.129c0.235-0.659,0.376-1.082,0.376-1.364h0.753
		C498.132,297.356,498.038,297.779,497.709,298.579"/>
	<path fill="#FFFFFF" d="M501.613,300.366c-0.188,0.094-0.47,0.188-0.611,0.188c-0.423,0-0.659-0.235-0.659-0.894
		c-0.47,0.658-0.894,0.894-1.27,0.894c-0.564,0-0.894-0.423-0.894-1.176c0-1.317,0.894-2.493,2.117-2.493
		c0.282,0,0.47,0.047,0.658,0.094c0.141,0,0.423-0.047,0.564-0.094c-0.094,0.47-0.376,2.117-0.376,2.54
		c0,0.376,0.094,0.423,0.282,0.423c0.047,0,0.141-0.047,0.235-0.094 M500.155,297.544c-0.611,0-1.129,0.8-1.129,1.599
		c0,0.423,0.141,0.611,0.376,0.611s0.611-0.282,0.988-0.847c0.047-0.329,0.188-1.035,0.235-1.317l0,0
		C500.484,297.591,500.343,297.544,500.155,297.544"/>
	<path fill="#FFFFFF" d="M504.152,299.755c-0.611,1.129-1.223,2.023-1.599,2.446l-0.941-0.141c0.329-0.282,0.8-0.8,1.223-1.552
		c-0.094-0.564-0.235-1.364-0.423-2.07c-0.235-1.035-0.423-1.223-0.564-1.411l0.894-0.141c0.094,0.141,0.235,0.376,0.376,1.176
		c0.094,0.517,0.141,0.988,0.188,1.364c0,0.094,0,0.188,0,0.282c0.047-0.094,0.094-0.235,0.141-0.329
		c0.706-1.411,0.894-2.07,0.894-2.493h0.847C505.234,297.544,504.952,298.297,504.152,299.755"/>
	<path fill="#FFFFFF" d="M507.539,297.779c-0.188-0.141-0.423-0.235-0.658-0.235c-0.376,0-0.517,0.235-0.517,0.423
		c0,0.235,0.094,0.376,0.47,0.611c0.423,0.282,0.611,0.517,0.611,0.941c0,0.517-0.423,1.082-1.364,1.082
		c-0.329,0-0.706-0.094-0.894-0.235l0.141-0.706c0.235,0.235,0.517,0.376,0.8,0.376c0.329,0,0.517-0.141,0.517-0.423
		c0-0.188-0.094-0.329-0.423-0.564c-0.47-0.329-0.658-0.564-0.658-0.988c0-0.611,0.423-1.129,1.317-1.129
		c0.329,0,0.611,0.094,0.8,0.141"/>
</g>
</svg>
