<?xml version="1.0" encoding="utf-8"?>
<!-- Generator: Adobe Illustrator 17.0.0, SVG Export Plug-In . SVG Version: 6.00 Build 0)  -->
<!DOCTYPE svg PUBLIC "-//W3C//DTD SVG 1.1//EN" "http://www.w3.org/Graphics/SVG/1.1/DTD/svg11.dtd">
<svg version="1.1" id="Layer_1" xmlns="http://www.w3.org/2000/svg" xmlns:xlink="http://www.w3.org/1999/xlink" x="0px" y="0px"
	 width="22.99px" height="23px" viewBox="0 0 22.99 23" enable-background="new 0 0 22.99 23" xml:space="preserve">
<g>
	<g>
		<g>
			<path fill="#505050" d="M16.615,21.607l1.754-1.742l-2.28-2.265l0.953-1.992l2.311,2.152l0.959-1.017L17.9,14.495
				c0.845-0.544,1.407-1.487,1.407-2.559c0-1.681-1.377-3.049-3.07-3.049s-3.069,1.368-3.069,3.049c0,0.468,0.11,0.958,0.301,1.307
				H10.01v1.394h2.165l-2.036,3.069l2.368,2.178l-1.502,1.492l0.233,0.231h-0.182c-5.323,0-9.653-4.299-9.653-9.583
				c0-1.356,0.279-3.711,0.829-4.939c0.892-1.991,2.46-3.638,4.416-4.635c1.371-0.7,2.854-1.055,4.408-1.055h4.743v-0.55
				l0.017,0.549c0.026-0.001,0.732-0.002,1.366,0.622c0.578,0.569,0.932,1.506,1.038,2.736l-1.68-0.891l-1.862,1.652l-1.964-1.742
				l-1.965,1.743L9.25,4.185l-0.934,1.04l2.432,2.157l1.965-1.742l1.964,1.742l2.066-1.833l2.223,1.179l0.619-1.151h0.073
				c0-2.074-0.513-3.617-1.525-4.586C17.118,0.019,15.991-0.004,15.793,0h-4.737c-1.754,0-3.5,0.418-5.05,1.209
				C3.768,2.352,1.972,4.237,0.95,6.518C0.32,7.924,0,10.471,0,12.023C0,18.076,4.96,23,11.056,23H22.99v-1.394H16.615z
				 M16.237,10.281c0.919,0,1.666,0.743,1.666,1.655c0,0.913-0.747,1.655-1.666,1.655c-0.295,0-0.571-0.077-0.812-0.211l0.138-0.137
				h-0.345c-0.393-0.349-0.647-0.776-0.647-1.307C14.571,11.023,15.318,10.281,16.237,10.281z M14.631,21.607h-1.875l1.773-1.762
				l-2.368-2.178l2.252-3.283c0.381,0.28,0.828,0.475,1.314,0.556l-1.624,2.659l2.28,2.265L14.631,21.607z M9.091,8.594L8.651,7.271
				C7.709,7.58,6.846,8.112,6.156,8.81c-0.997,1.008-1.625,3.382-1.766,4.786c-0.087,0.867,0.01,1.729,0.287,2.562l1.332-0.437
				c-0.215-0.647-0.29-1.315-0.223-1.986c0.11-1.09,0.596-3.166,1.37-3.948C7.699,9.239,8.35,8.838,9.091,8.594z"/>
		</g>
	</g>
</g>
</svg>
