<?xml version="1.0" encoding="utf-8"?>
<!-- Generator: Adobe Illustrator 17.0.0, SVG Export Plug-In . SVG Version: 6.00 Build 0)  -->
<!DOCTYPE svg PUBLIC "-//W3C//DTD SVG 1.1//EN" "http://www.w3.org/Graphics/SVG/1.1/DTD/svg11.dtd">
<svg version="1.1" id="Layer_1" xmlns="http://www.w3.org/2000/svg" xmlns:xlink="http://www.w3.org/1999/xlink" x="0px" y="0px"
	 width="26.691px" height="24.527px" viewBox="0 0 26.691 24.527" enable-background="new 0 0 26.691 24.527" xml:space="preserve">
<path fill="#505050" d="M21.562,14.191c-1.662,0-3.141,0.801-4.079,2.04l-7.333-2.907c0.071-0.343,0.109-0.697,0.109-1.061
	c0-0.373-0.04-0.737-0.115-1.087l7.322-2.903c0.937,1.251,2.425,2.062,4.097,2.062c2.828,0,5.129-2.318,5.129-5.168
	C26.691,2.318,24.39,0,21.562,0s-5.129,2.318-5.129,5.168c0,0.554,0.088,1.087,0.248,1.587L9.519,9.594
	C8.62,8.098,6.989,7.096,5.129,7.096C2.301,7.096,0,9.414,0,12.263c0,2.85,2.301,5.168,5.129,5.168c1.869,0,3.507-1.013,4.404-2.522
	l7.157,2.837c-0.166,0.508-0.257,1.05-0.257,1.613c0,2.85,2.301,5.168,5.129,5.168s5.129-2.318,5.129-5.168
	C26.691,16.51,24.39,14.191,21.562,14.191z M21.562,1.72c1.887,0,3.422,1.547,3.422,3.448c0,1.901-1.535,3.448-3.422,3.448
	S18.14,7.069,18.14,5.168C18.14,3.267,19.675,1.72,21.562,1.72z M21.562,22.807c-1.887,0-3.422-1.547-3.422-3.448
	c0-1.901,1.535-3.447,3.422-3.447s3.422,1.547,3.422,3.447C24.984,21.26,23.448,22.807,21.562,22.807z"/>
</svg>
