<?xml version="1.0" encoding="utf-8"?>
<!-- Generator: Adobe Illustrator 17.0.0, SVG Export Plug-In . SVG Version: 6.00 Build 0)  -->
<!DOCTYPE svg PUBLIC "-//W3C//DTD SVG 1.1//EN" "http://www.w3.org/Graphics/SVG/1.1/DTD/svg11.dtd">
<svg version="1.1" id="Layer_1" xmlns="http://www.w3.org/2000/svg" xmlns:xlink="http://www.w3.org/1999/xlink" x="0px" y="0px"
	 width="15.374px" height="35.069px" viewBox="0 0 15.374 35.069" enable-background="new 0 0 15.374 35.069" xml:space="preserve">
<g>
	<g>
		<path fill="none" d="M11.527,20.608V0h-7.68v20.608C1.461,21.99,0,24.515,0,27.321c0,4.272,3.448,7.748,7.687,7.748
			c4.239,0,7.687-3.476,7.687-7.748C15.374,24.515,13.914,21.99,11.527,20.608z M7.687,33.349c-3.298,0-5.981-2.704-5.981-6.028
			c0-2.326,1.29-4.404,3.367-5.423l0.48-0.235V1.72H9.82v19.943l0.48,0.235c2.077,1.019,3.368,3.097,3.368,5.423
			C13.668,30.645,10.985,33.349,7.687,33.349z M8.54,23.543V7.74H6.834v15.802C5.12,23.934,3.84,25.476,3.84,27.321
			c0,2.141,1.723,3.878,3.847,3.878s3.847-1.736,3.847-3.878C11.534,25.476,10.254,23.934,8.54,23.543z"/>
	</g>
</g>
</svg>
