<?xml version="1.0" encoding="utf-8"?>
<!-- Generator: Adobe Illustrator 17.0.0, SVG Export Plug-In . SVG Version: 6.00 Build 0)  -->
<!DOCTYPE svg PUBLIC "-//W3C//DTD SVG 1.1//EN" "http://www.w3.org/Graphics/SVG/1.1/DTD/svg11.dtd">
<svg version="1.1" id="Layer_1" xmlns="http://www.w3.org/2000/svg" xmlns:xlink="http://www.w3.org/1999/xlink" x="0px" y="0px"
	 width="16.3px" height="16.306px" viewBox="0 0 16.3 16.306" enable-background="new 0 0 16.3 16.306" xml:space="preserve">
<g>
	<path fill="#505050" d="M8.15,0C3.649,0,0,3.65,0,8.153c0,3.338,2.007,6.207,4.878,7.468c-0.023-0.569-0.004-1.253,0.142-1.872
		c0.157-0.662,1.049-4.443,1.049-4.443s-0.26-0.521-0.26-1.29c0-1.208,0.7-2.111,1.572-2.111c0.741,0,1.099,0.557,1.099,1.224
		c0,0.745-0.475,1.861-0.72,2.894c-0.204,0.865,0.433,1.57,1.286,1.57c1.544,0,2.584-1.984,2.584-4.335
		c0-1.787-1.203-3.124-3.391-3.124c-2.472,0-4.013,1.844-4.013,3.904c0,0.71,0.209,1.211,0.537,1.599
		c0.151,0.179,0.172,0.25,0.117,0.455c-0.039,0.15-0.129,0.511-0.166,0.654c-0.054,0.207-0.222,0.281-0.408,0.204
		c-1.139-0.465-1.669-1.713-1.669-3.115c0-2.316,1.952-5.093,5.825-5.093c3.112,0,5.16,2.253,5.16,4.67
		c0,3.198-1.777,5.588-4.397,5.588c-0.88,0-1.708-0.476-1.991-1.016c0,0-0.473,1.878-0.573,2.241
		c-0.173,0.628-0.511,1.257-0.82,1.747c0.733,0.216,1.507,0.334,2.31,0.334c4.501,0,8.15-3.65,8.15-8.153C16.3,3.65,12.651,0,8.15,0
		z"/>
</g>
</svg>
