<?xml version="1.0" encoding="utf-8"?>
<!-- Generator: Adobe Illustrator 17.0.0, SVG Export Plug-In . SVG Version: 6.00 Build 0)  -->
<!DOCTYPE svg PUBLIC "-//W3C//DTD SVG 1.1//EN" "http://www.w3.org/Graphics/SVG/1.1/DTD/svg11.dtd">
<svg version="1.1" id="Layer_1" xmlns="http://www.w3.org/2000/svg" xmlns:xlink="http://www.w3.org/1999/xlink" x="0px" y="0px"
	 width="28.744px" height="19.952px" viewBox="0 0 28.744 19.952" enable-background="new 0 0 28.744 19.952" xml:space="preserve">
<g>
	<g>
		<g>
			<path fill="#505050" d="M28.457,4.304c0,0-0.281-1.955-1.143-2.816c-1.093-1.13-2.318-1.135-2.88-1.202
				C20.412,0,14.378,0,14.378,0h-0.013c0,0-6.034,0-10.056,0.287C3.748,0.353,2.523,0.359,1.43,1.488
				C0.568,2.349,0.288,4.304,0.288,4.304S0,6.6,0,8.896v2.152c0,2.296,0.288,4.591,0.288,4.591s0.28,1.955,1.142,2.816
				c1.093,1.13,2.53,1.094,3.169,1.212c2.299,0.218,9.773,0.285,9.773,0.285s6.04-0.009,10.062-0.296
				c0.562-0.066,1.787-0.072,2.88-1.202c0.862-0.861,1.143-2.816,1.143-2.816s0.287-2.296,0.287-4.591V8.896
				C28.744,6.6,28.457,4.304,28.457,4.304z M11.405,13.656l-0.001-7.971l7.767,3.999L11.405,13.656z"/>
		</g>
	</g>
</g>
</svg>
