<?xml version="1.0" encoding="utf-8"?>
<!-- Generator: Adobe Illustrator 17.0.0, SVG Export Plug-In . SVG Version: 6.00 Build 0)  -->
<!DOCTYPE svg PUBLIC "-//W3C//DTD SVG 1.1//EN" "http://www.w3.org/Graphics/SVG/1.1/DTD/svg11.dtd">
<svg version="1.1" id="Layer_1" xmlns="http://www.w3.org/2000/svg" xmlns:xlink="http://www.w3.org/1999/xlink" x="0px" y="0px"
	 width="17.986px" height="17.993px" viewBox="0 0 17.986 17.993" enable-background="new 0 0 17.986 17.993" xml:space="preserve">
<g>
	<g>
		<g>
			<path fill="#505050" d="M14.592,0H3.395C1.523,0,0,1.523,0,3.396v11.201c0,1.872,1.523,3.396,3.395,3.396h11.197
				c1.872,0,3.395-1.523,3.395-3.396V3.396C17.986,1.523,16.463,0,14.592,0z M17.081,14.597c0,1.373-1.117,2.49-2.489,2.49H3.395
				c-1.373,0-2.489-1.117-2.489-2.49V3.396c0-1.373,1.117-2.49,2.489-2.49h11.197c1.372,0,2.489,1.117,2.489,2.49V14.597z
				 M5.764,6.567c-1.342,0-2.429,1.088-2.429,2.43s1.087,2.43,2.429,2.43s2.429-1.088,2.429-2.43S7.105,6.567,5.764,6.567z
				 M12.223,6.567c-1.341,0-2.429,1.088-2.429,2.43s1.088,2.43,2.429,2.43c1.342,0,2.429-1.088,2.429-2.43
				S13.564,6.567,12.223,6.567z"/>
		</g>
	</g>
</g>
</svg>
