<?xml version="1.0" encoding="utf-8"?>
<!-- Generator: Adobe Illustrator 17.0.0, SVG Export Plug-In . SVG Version: 6.00 Build 0)  -->
<!DOCTYPE svg PUBLIC "-//W3C//DTD SVG 1.1//EN" "http://www.w3.org/Graphics/SVG/1.1/DTD/svg11.dtd">
<svg version="1.1" id="Layer_1" xmlns="http://www.w3.org/2000/svg" xmlns:xlink="http://www.w3.org/1999/xlink" x="0px" y="0px"
	 width="20.328px" height="19.959px" viewBox="0 0 20.328 19.959" enable-background="new 0 0 20.328 19.959" xml:space="preserve">
<g>
	<g>
		<g>
			<path fill="#505050" d="M5.074,10.948c1.855,0.054,2.923-1.486,2.603-3.878c-0.32-2.393-1.908-4.356-3.763-4.41
				c-1.855-0.054-3.1,1.777-2.779,4.17C1.454,9.221,3.218,10.893,5.074,10.948z M6.485,16.126c-0.546-0.174-1.147-0.276-1.792-0.282
				c-2.015-0.022-3.802,0.901-4.625,2.186c0.261,1.105,1.268,1.929,2.473,1.929h7.036c0.005-0.09,0.011-0.18,0.011-0.272
				c0-0.249-0.031-0.493-0.088-0.729C9.196,17.791,7.986,17.151,6.485,16.126z M5.035,15.035c-0.547-0.523-0.99-0.973-0.99-1.763
				c0-0.469,0.153-0.916,0.365-1.318c-0.217,0.015-0.439,0.027-0.668,0.027c-1.591,0-2.857-0.535-3.743-1.406v5.4
				c1.056-0.573,2.341-0.929,3.786-0.929C4.222,15.046,4.621,15.035,5.035,15.035z M20.328,4.99V2.495
				C20.328,1.117,19.191,0,17.787,0H2.541C1.138,0,0,1.117,0,2.495v1.084C1.182,2.37,2.972,1.559,4.95,1.559
				c1.801,0,6.885,0,6.885,0l-1.538,1.585H8.489c1.275,0.717,1.953,2.194,1.953,3.823c0,1.494-0.843,2.699-2.035,3.613
				c-1.162,0.891-1.383,1.265-1.383,2.023c0,0.647,1.389,1.611,2.027,2.081c2.224,1.637,2.673,2.667,2.673,4.715
				c0,0.187-0.02,0.374-0.049,0.56h6.111c1.403,0,2.541-1.117,2.541-2.495V6.549h-3.176v3.119h-1.588V6.549h-3.176V4.99h3.176V1.871
				h1.588V4.99H20.328z"/>
		</g>
	</g>
</g>
</svg>
