<?xml version="1.0" encoding="utf-8"?>
<!-- Generator: Adobe Illustrator 17.0.0, SVG Export Plug-In . SVG Version: 6.00 Build 0)  -->
<!DOCTYPE svg PUBLIC "-//W3C//DTD SVG 1.1//EN" "http://www.w3.org/Graphics/SVG/1.1/DTD/svg11.dtd">
<svg version="1.1" id="Layer_1" xmlns="http://www.w3.org/2000/svg" xmlns:xlink="http://www.w3.org/1999/xlink" x="0px" y="0px"
	 width="15.738px" height="15.744px" viewBox="0 0 15.738 15.744" enable-background="new 0 0 15.738 15.744" xml:space="preserve">
<g>
	<path fill-rule="evenodd" clip-rule="evenodd" fill="#505050" d="M2.02,0h11.698c1.111,0,2.02,0.909,2.02,2.02v11.703
		c0,1.111-0.909,2.021-2.02,2.021H2.02c-1.111,0-2.02-0.91-2.02-2.021V2.02C0,0.909,0.909,0,2.02,0L2.02,0z M11.465,1.749
		c-0.39,0-0.709,0.319-0.709,0.709v1.696c0,0.39,0.319,0.709,0.709,0.709h1.779c0.39,0,0.708-0.319,0.708-0.709V2.458
		c0-0.39-0.319-0.709-0.708-0.709H11.465L11.465,1.749z M13.959,6.658h-1.385c0.131,0.428,0.202,0.882,0.202,1.351
		c0,2.619-2.19,4.742-4.892,4.742c-2.702,0-4.892-2.123-4.892-4.742c0-0.469,0.071-0.923,0.202-1.351H1.749v6.651
		c0,0.344,0.282,0.626,0.626,0.626h10.959c0.344,0,0.626-0.282,0.626-0.626V6.658L13.959,6.658z M7.884,4.774
		c-1.746,0-3.161,1.372-3.161,3.064s1.415,3.064,3.161,3.064s3.161-1.372,3.161-3.064S9.63,4.774,7.884,4.774z"/>
</g>
</svg>
