<?xml version="1.0" encoding="utf-8"?>
<!-- Generator: Adobe Illustrator 17.0.0, SVG Export Plug-In . SVG Version: 6.00 Build 0)  -->
<!DOCTYPE svg PUBLIC "-//W3C//DTD SVG 1.1//EN" "http://www.w3.org/Graphics/SVG/1.1/DTD/svg11.dtd">
<svg version="1.1" id="Layer_1" xmlns="http://www.w3.org/2000/svg" xmlns:xlink="http://www.w3.org/1999/xlink" x="0px" y="0px"
	 width="114px" height="19.001px" viewBox="0 0 114 19.001" enable-background="new 0 0 114 19.001" xml:space="preserve">
<g>
	<g>
		<g>
			<path fill="#505050" d="M7.948,9.446c-0.714,0-1.294,0.587-1.294,1.31s0.579,1.31,1.294,1.31c0.714,0,1.293-0.587,1.293-1.31
				S8.662,9.446,7.948,9.446z M23.522,9.446c-0.714,0-1.293,0.587-1.293,1.31s0.579,1.31,1.293,1.31c0.714,0,1.294-0.587,1.294-1.31
				S24.236,9.446,23.522,9.446z M7.948,6.887c-1.02,0-1.979,0.402-2.7,1.133c-0.721,0.731-1.119,1.702-1.119,2.736
				c0,1.034,0.397,2.005,1.119,2.736c0.721,0.731,1.68,1.133,2.7,1.133c2.105,0,3.818-1.736,3.818-3.869
				C11.766,8.623,10.053,6.887,7.948,6.887z M7.948,13.439c-0.708,0-1.372-0.279-1.873-0.786c-0.5-0.507-0.776-1.18-0.776-1.897
				c0-0.717,0.275-1.39,0.776-1.897c0.5-0.507,1.165-0.786,1.873-0.786c1.46,0,2.648,1.204,2.648,2.683
				C10.596,12.236,9.408,13.439,7.948,13.439z M23.522,6.887c-1.02,0-1.979,0.402-2.7,1.133c-0.721,0.731-1.119,1.702-1.119,2.736
				c0,1.034,0.397,2.005,1.119,2.736c0.721,0.731,1.68,1.133,2.7,1.133c2.106,0,3.819-1.736,3.819-3.869
				C27.34,8.623,25.627,6.887,23.522,6.887z M23.522,13.439c-0.707,0-1.372-0.279-1.873-0.786c-0.5-0.507-0.776-1.18-0.776-1.897
				c0-0.717,0.276-1.39,0.776-1.897c0.5-0.507,1.165-0.786,1.873-0.786c1.46,0,2.648,1.204,2.648,2.683
				C26.17,12.236,24.982,13.439,23.522,13.439z M31.066,3.058h-5.219c-0.086-0.027-0.176-0.045-0.264-0.069
				C25.299,2.538,23.358,0,15.6,0C7.085,0,5.576,3.058,5.576,3.058H0.133C0.828,3.761,1.31,4.972,1.606,5.924
				C0.602,7.272,0,8.942,0,10.756c0,4.44,3.565,8.052,7.948,8.052c2.429,0,4.604-1.112,6.063-2.859l1.804,2.56l1.557-2.659
				c1.459,1.804,3.673,2.958,6.149,2.958c4.382,0,7.947-3.612,7.947-8.052c0-1.928-0.674-3.7-1.794-5.088
				C29.975,4.764,30.433,3.699,31.066,3.058z M7.948,17.228c-3.522,0-6.387-2.903-6.387-6.471c0-3.568,2.865-6.471,6.387-6.471
				c3.522,0,6.387,2.903,6.387,6.471C14.334,14.325,11.469,17.228,7.948,17.228z M8.055,3.222c0,0,2.048-2.293,7.491-2.293h0.539
				c5.443,0,7.491,2.293,7.491,2.293s-5.82-0.983-7.76,6.279C13.875,2.239,8.055,3.222,8.055,3.222z M29.909,10.756
				c0,3.568-2.865,6.471-6.387,6.471c-3.522,0-6.387-2.903-6.387-6.471c0-3.568,2.865-6.471,6.387-6.471
				C27.043,4.285,29.909,7.188,29.909,10.756z M37.346,4.807l-1.51,0.48V6.87H34.52v1.192h1.317v4.696
				c0,1.014,0.175,1.779,0.597,2.259c0.369,0.409,0.948,0.658,1.668,0.658c0.597,0,1.071-0.107,1.369-0.213l-0.07-1.192
				c-0.228,0.071-0.474,0.106-0.895,0.106c-0.86,0-1.158-0.604-1.158-1.672V8.062h2.212V6.87h-2.212V4.807z M42.349,8.56h-0.053
				l-0.07-1.69h-1.352c0.053,0.801,0.07,1.672,0.07,2.686l-0.018,5.923h1.545V10.89c0-0.267,0.018-0.516,0.052-0.747
				c0.211-1.156,0.983-1.992,2.071-1.992c0.211,0,0.369,0.018,0.544,0.036V6.728C45,6.692,44.877,6.674,44.719,6.674
				C43.683,6.674,42.735,7.404,42.349,8.56z M47.142,3.277c-0.597,0-1.001,0.445-1.001,0.996c0,0.551,0.386,1.014,0.966,1.014h0.018
				c0.614,0,1.001-0.462,1.001-1.014C48.125,3.722,47.738,3.277,47.142,3.277z M46.369,15.479h1.545V6.87h-1.545V15.479z
				 M54.55,6.674c-1.369,0-2.388,0.605-3.002,1.672h-0.035L51.425,6.87h-1.387c0.053,0.818,0.07,1.708,0.07,2.81v9.32h1.545v-4.678
				h0.035c0.509,0.854,1.475,1.352,2.616,1.352c1.984,0,3.862-1.529,3.862-4.624C58.166,8.435,56.621,6.674,54.55,6.674z
				 M54.023,14.447c-1.088,0-2.036-0.747-2.3-1.832c-0.052-0.195-0.07-0.427-0.07-0.64v-1.494c0-0.196,0.052-0.427,0.088-0.64
				c0.298-1.174,1.299-1.921,2.352-1.921c1.633,0,2.51,1.476,2.51,3.201C56.604,13.096,55.655,14.447,54.023,14.447z M65.714,10.196
				c0-1.725-0.632-3.522-3.247-3.522c-1.071,0-2.107,0.302-2.809,0.747l0.351,1.049c0.597-0.409,1.422-0.64,2.23-0.64
				c1.738-0.018,1.931,1.281,1.931,1.992v0.178c-3.283-0.018-5.109,1.12-5.109,3.201c0,1.245,0.878,2.472,2.598,2.472
				c1.211,0,2.142-0.605,2.598-1.281h0.053l0.141,1.085h1.387c-0.088-0.587-0.123-1.316-0.123-2.063V10.196z M64.204,12.58
				c0,0.16-0.018,0.338-0.07,0.498c-0.246,0.73-0.966,1.441-2.089,1.441c-0.773,0-1.439-0.462-1.439-1.494
				c0-1.672,1.913-1.974,3.599-1.939V12.58z M75.158,2.85h-1.545v5.122h-0.035c-0.369-0.676-1.246-1.298-2.563-1.298
				c-2.054,0-3.827,1.743-3.809,4.624c0,2.615,1.597,4.375,3.652,4.375c1.387,0,2.405-0.729,2.879-1.689h0.035l0.07,1.494h1.387
				c-0.053-0.587-0.07-1.459-0.07-2.223V2.85z M73.614,11.868c0,0.249-0.018,0.463-0.07,0.676c-0.281,1.156-1.229,1.867-2.264,1.867
				c-1.65,0-2.51-1.44-2.51-3.201c0-1.885,0.948-3.308,2.546-3.308c1.159,0,2.001,0.818,2.229,1.796
				c0.053,0.214,0.07,0.462,0.07,0.676V11.868z M81.057,11.69c-0.281,0.8-0.527,1.512-0.72,2.223h-0.053
				c-0.176-0.711-0.404-1.423-0.685-2.223l-1.668-4.82h-1.65l3.23,8.609h1.474l3.336-8.609h-1.615L81.057,11.69z M85.41,15.479
				h1.545V6.87H85.41V15.479z M86.183,3.277c-0.597,0-1,0.445-1,0.996c0,0.551,0.386,1.014,0.965,1.014h0.018
				c0.615,0,1.001-0.462,1.001-1.014C87.166,3.722,86.78,3.277,86.183,3.277z M91.888,10.481c-1.106-0.427-1.597-0.747-1.597-1.476
				c0-0.64,0.491-1.174,1.404-1.174c0.79,0,1.405,0.302,1.738,0.498l0.369-1.121c-0.456-0.302-1.211-0.534-2.071-0.534
				c-1.808,0-2.932,1.139-2.932,2.526c0,1.032,0.72,1.868,2.265,2.437c1.123,0.427,1.562,0.836,1.562,1.583
				c0,0.729-0.527,1.28-1.633,1.28c-0.772,0-1.58-0.32-2.054-0.605L88.57,15.07c0.597,0.356,1.457,0.605,2.387,0.605
				c1.984,0,3.16-1.067,3.16-2.597C94.118,11.779,93.345,11.032,91.888,10.481z M99.331,6.674c-2.335,0-4.213,1.69-4.213,4.571
				c0,2.721,1.791,4.429,4.073,4.429h0.018c2.019,0,4.213-1.387,4.213-4.589C103.421,8.471,101.771,6.674,99.331,6.674z
				 M99.243,14.501h-0.018c-1.492,0-2.546-1.423-2.546-3.308c0-1.636,0.79-3.344,2.598-3.344c1.826,0,2.546,1.832,2.546,3.291
				C101.824,13.096,100.718,14.501,99.243,14.501z M106.423,8.56h-0.052l-0.07-1.69h-1.352c0.053,0.801,0.07,1.672,0.07,2.686
				l-0.018,5.923h1.545V10.89c0-0.267,0.018-0.516,0.053-0.747c0.211-1.156,0.983-1.992,2.072-1.992
				c0.211,0,0.369,0.018,0.544,0.036V6.728c-0.141-0.035-0.263-0.053-0.421-0.053C107.757,6.674,106.809,7.404,106.423,8.56z
				 M112.5,7.708V7.7c0.152-0.058,0.312-0.22,0.312-0.453c0-0.17-0.058-0.299-0.165-0.387c-0.126-0.107-0.31-0.148-0.572-0.148
				c-0.216,0-0.405,0.017-0.533,0.041v1.821h0.396V7.848h0.118c0.165,0.003,0.242,0.063,0.291,0.296
				c0.05,0.228,0.095,0.379,0.121,0.431h0.41c-0.034-0.071-0.087-0.313-0.142-0.524C112.692,7.88,112.623,7.76,112.5,7.708z
				 M112.095,7.546h-0.157V7.039c0.029-0.008,0.084-0.014,0.181-0.014c0.184,0,0.294,0.088,0.294,0.255
				C112.413,7.442,112.295,7.546,112.095,7.546z M112.19,5.881c-0.998,0-1.81,0.823-1.81,1.834c0,1.011,0.812,1.834,1.81,1.834
				c0.998,0,1.81-0.822,1.81-1.834C114,6.704,113.188,5.881,112.19,5.881z M112.19,9.153c-0.783,0-1.419-0.645-1.419-1.439
				c0-0.793,0.636-1.438,1.419-1.438c0.783,0,1.42,0.645,1.42,1.438C113.61,8.508,112.973,9.153,112.19,9.153z"/>
		</g>
	</g>
</g>
</svg>
