<?xml version="1.0" encoding="utf-8"?>
<!-- Generator: Adobe Illustrator 17.0.0, SVG Export Plug-In . SVG Version: 6.00 Build 0)  -->
<!DOCTYPE svg PUBLIC "-//W3C//DTD SVG 1.1//EN" "http://www.w3.org/Graphics/SVG/1.1/DTD/svg11.dtd">
<svg version="1.1" id="Layer_1" xmlns="http://www.w3.org/2000/svg" xmlns:xlink="http://www.w3.org/1999/xlink" x="0px" y="0px"
	 width="29.014px" height="24.323px" viewBox="0 0 29.014 24.323" enable-background="new 0 0 29.014 24.323" xml:space="preserve">
<g>
	<g>
		<g>
			<path fill="#505050" d="M16.527,12.054l-2.371-2.643h-2l3.057,3.96l-0.049,0.049l0.161,0.097l0.715,0.926l0.421-0.243
				l0.353,0.212l0.807-0.882l0.15-0.087l-0.035-0.039l6.411-7.001l-1.992,0.009L16.527,12.054z M24.529,0.884
				C23.22,0.297,21.928,0,20.689,0c-3.132,0-5.189,1.848-6.182,3.028C13.513,1.848,11.457,0,8.324,0
				c-1.239,0-2.531,0.297-3.84,0.884c-2.672,1.197-4.301,3.71-4.469,6.894c-0.348,6.58,5.153,11.171,14.016,16.339l0.096,0.056
				l0.544,0.15l0.31-0.18c8.863-5.169,14.365-9.768,14.016-16.359C28.829,4.596,27.2,2.081,24.529,0.884z M14.528,22.414
				C4.712,16.561,1.489,12.326,1.725,7.87C1.86,5.317,3.087,3.395,5.181,2.457C6.27,1.969,7.327,1.722,8.324,1.722
				c3.507,0,5.327,3.006,5.401,3.132l0.248,0.425h1.067l0.248-0.425c0.018-0.031,1.868-3.132,5.401-3.132
				c0.997,0,2.055,0.247,3.143,0.735c2.093,0.938,3.321,2.862,3.456,5.419C27.525,12.334,24.311,16.565,14.528,22.414z"/>
		</g>
	</g>
</g>
</svg>
